<svg width="178" height="68" viewBox="0 0 143 28" fill="none" xmlns="http://www.w3.org/2000/svg">
<rect width="178" height="68" fill="#F5F5F5"/>
<path d="M0.32 28V-1.90735e-06H14C17.52 -1.90735e-06 20.16 0.666665 21.92 2C23.7067 3.33333 24.6 5.09333 24.6 7.28C24.6 8.74667 24.24 10.0267 23.52 11.12C22.8 12.1867 21.8133 13.0133 20.56 13.6C19.3067 14.1867 17.8667 14.48 16.24 14.48L17 12.84C18.76 12.84 20.32 13.1333 21.68 13.72C23.04 14.28 24.0933 15.12 24.84 16.24C25.6133 17.36 26 18.7333 26 20.36C26 22.76 25.0533 24.64 23.16 26C21.2667 27.3333 18.48 28 14.8 28H0.32ZM6.76 23.12H14.32C16 23.12 17.2667 22.8533 18.12 22.32C19 21.76 19.44 20.88 19.44 19.68C19.44 18.5067 19 17.64 18.12 17.08C17.2667 16.4933 16 16.2 14.32 16.2H6.28V11.48H13.2C14.7733 11.48 15.9733 11.2133 16.8 10.68C17.6533 10.12 18.08 9.28 18.08 8.16C18.08 7.06667 17.6533 6.25333 16.8 5.72C15.9733 5.16 14.7733 4.88 13.2 4.88H6.76V23.12ZM30.9059 28V-1.90735e-06H37.3859V28H30.9059ZM49.8309 28V5.28H40.8709V-1.90735e-06H65.2709V5.28H56.3109V28H49.8309ZM66.0331 19.24V14.24H77.3531V19.24H66.0331ZM82.7028 28V-1.90735e-06H88.0628L99.9828 19.76H97.1428L108.863 -1.90735e-06H114.183L114.263 28H108.183L108.143 9.32H109.263L99.9028 25.04H96.9828L87.4228 9.32H88.7828V28H82.7028ZM126.866 11.28H140.346V16.32H126.866V11.28ZM127.346 22.8H142.586V28H120.906V-1.90735e-06H142.066V5.2H127.346V22.8Z" fill="black"/>
</svg>
