<svg width="132" height="45" viewBox="0 0 132 45" fill="none" xmlns="http://www.w3.org/2000/svg">
<rect width="132" height="45" fill="#F5F5F5"/>
<path d="M0.988007 26V0.799999H13.3C16.468 0.799999 18.844 1.4 20.428 2.6C22.036 3.8 22.84 5.384 22.84 7.352C22.84 8.672 22.516 9.824 21.868 10.808C21.22 11.768 20.332 12.512 19.204 13.04C18.076 13.568 16.78 13.832 15.316 13.832L16 12.356C17.584 12.356 18.988 12.62 20.212 13.148C21.436 13.652 22.384 14.408 23.056 15.416C23.752 16.424 24.1 17.66 24.1 19.124C24.1 21.284 23.248 22.976 21.544 24.2C19.84 25.4 17.332 26 14.02 26H0.988007ZM6.78401 21.608H13.588C15.1 21.608 16.24 21.368 17.008 20.888C17.8 20.384 18.196 19.592 18.196 18.512C18.196 17.456 17.8 16.676 17.008 16.172C16.24 15.644 15.1 15.38 13.588 15.38H6.35201V11.132H12.58C13.996 11.132 15.076 10.892 15.82 10.412C16.588 9.908 16.972 9.152 16.972 8.144C16.972 7.16 16.588 6.428 15.82 5.948C15.076 5.444 13.996 5.192 12.58 5.192H6.78401V21.608Z" fill="black"/>
<path d="M38.7107 26V0.799999H44.5427V21.248H57.1787V26H38.7107Z" fill="black"/>
<path d="M81.8285 26.432C78.2525 26.432 75.4565 25.436 73.4405 23.444C71.4245 21.452 70.4165 18.608 70.4165 14.912V0.799999H76.2485V14.696C76.2485 17.096 76.7405 18.824 77.7245 19.88C78.7085 20.936 80.0885 21.464 81.8645 21.464C83.6405 21.464 85.0205 20.936 86.0045 19.88C86.9885 18.824 87.4805 17.096 87.4805 14.696V0.799999H93.2405V14.912C93.2405 18.608 92.2325 21.452 90.2165 23.444C88.2005 25.436 85.4045 26.432 81.8285 26.432Z" fill="black"/>
<path d="M106.319 26L117.155 11.06V15.308L106.787 0.799999H113.411L120.575 10.916L117.803 10.952L124.859 0.799999H131.195L120.899 15.056V10.88L131.807 26H125.075L117.659 15.308H120.323L113.015 26H106.319Z" fill="black"/>
<path d="M121 40C121 42.7614 95.7041 45 64.5 45C33.2959 45 8.00001 42.7614 8.00001 40C8.00001 37.2386 33.2959 35 64.5 35C95.7041 35 121 37.2386 121 40Z" fill="#D6955B"/>
</svg>
