<svg width="240" height="280" viewBox="0 0 240 280" fill="none" xmlns="http://www.w3.org/2000/svg">
<rect width="240" height="280" fill="#F5F5F5"/>
<path d="M125.156 16.5L97.6562 2L88.6562 0C79.6562 2.83333 61.6562 10.5 61.6562 18.5V30.5L55.6562 56C50.2799 90 69.9562 92.4 79.1562 90C90.6562 87 90.1562 87.5 91.1562 86C91.9562 84.8 94.4896 80.5 95.6562 78.5L104.156 60C104.156 46.5 108.556 41.3 110.156 48.5C111.756 55.7 110.823 61.5 110.156 63.5L104.156 73L95.6562 100C86.6562 134.5 76.0562 117.6 67.6562 112H65.6562L53.1562 93L6.65619 44.5C-8.34379 44.5 5.25618 81.4 15.6562 93V103.5L20.1562 112L28.6562 139.5L43.6562 159V169L11.6562 190L6.65619 198L9.65618 206.5C12.9895 207.333 19.7562 209.5 20.1562 211.5H28.6562L47.1562 193.5L65.6562 177.5C157.656 169 146.656 137.7 146.656 114.5C145.823 111.667 144.156 104.4 144.156 98V90L148.656 78.5L153.656 67L163.156 56V39.5L157.656 26L125.156 16.5Z" fill="url(#paint0_radial_0_1)"/>
<path d="M187.5 65C167.334 65 151 79.9912 151 98.5C151 117.009 167.334 132 187.5 132C207.666 132 224 117.009 224 98.5C224 79.9912 207.666 65 187.5 65ZM187.5 73.375C190.511 73.375 193.34 74.1287 196.077 74.9662C194.161 76.6413 191.971 78.1488 192.336 79.6562C192.701 81.1637 198.632 80.745 198.632 83.8438C198.632 86.105 194.8 86.775 197.446 89.3713C200.64 92.3025 191.606 97.5788 191.424 101.431C191.15 108.382 199.089 109.555 205.385 109.555C209.217 109.555 210.221 111.23 209.947 113.24C205.02 119.689 196.625 123.709 187.409 123.709C183.941 123.709 180.747 122.955 177.736 121.866C179.744 118.181 175.181 110.895 170.893 108.55C168.794 106.624 164.322 107.377 161.768 106.456C160.946 104.195 160.125 101.934 160.034 99.4212C160.307 99.0025 160.764 98.6675 161.494 98.6675C163.227 98.6675 165.6 101.85 166.878 101.515C168.52 101.18 160.125 90.5437 164.049 88.45C165.874 87.445 169.524 91.7162 168.337 87.11C167.242 82.8388 171.622 84.765 174.36 83.6762C176.732 82.755 178.466 80.2425 175.546 78.735C174.999 78.4837 174.36 77.8975 173.539 77.1438C177.645 74.8825 182.39 73.4587 187.5 73.4587V73.375ZM208.579 82.5037C210.221 84.3462 211.499 86.3563 212.594 88.5338V88.785C212.229 89.3712 211.59 89.7063 210.586 90.6275C208.031 92.9725 207.666 88.8688 206.571 88.0312C205.385 87.0263 201.096 88.1987 200.549 86.9425C199.91 85.435 205.111 83.425 208.579 82.5037Z" fill="black"/>
<path d="M21.952 221.688C30.3573 221.688 36.608 223.608 40.704 227.448C44.8 231.245 46.848 236.707 46.848 243.832C46.848 248.483 45.8453 252.557 43.84 256.056C41.8347 259.512 38.912 262.2 35.072 264.12C31.2747 266.04 26.7093 267 21.376 267C20.6933 267 19.7973 266.979 18.688 266.936C17.5787 266.893 16.4267 266.872 15.232 266.872C14.0373 266.829 12.9707 266.808 12.032 266.808C10.1547 266.808 8.29867 266.829 6.464 266.872C4.672 266.872 3.24267 266.915 2.176 267V265.72C3.54133 265.635 4.56533 265.464 5.248 265.208C5.93067 264.952 6.37867 264.44 6.592 263.672C6.848 262.904 6.976 261.752 6.976 260.216V228.472C6.976 226.893 6.848 225.741 6.592 225.016C6.37867 224.248 5.90933 223.736 5.184 223.48C4.50133 223.181 3.49867 223.011 2.176 222.968V221.688C3.24267 221.731 4.672 221.795 6.464 221.88C8.29867 221.923 10.112 221.923 11.904 221.88C13.44 221.837 15.168 221.795 17.088 221.752C19.0507 221.709 20.672 221.688 21.952 221.688ZM21.888 222.84C19.9253 222.84 18.6453 223.203 18.048 223.928C17.4507 224.653 17.152 226.125 17.152 228.344V260.344C17.152 262.563 17.4507 264.035 18.048 264.76C18.688 265.485 19.9893 265.848 21.952 265.848C25.536 265.848 28.352 265.016 30.4 263.352C32.4907 261.645 33.984 259.171 34.88 255.928C35.776 252.685 36.224 248.739 36.224 244.088C36.224 239.309 35.7333 235.363 34.752 232.248C33.8133 229.091 32.2987 226.744 30.208 225.208C28.1173 223.629 25.344 222.84 21.888 222.84Z" fill="black"/>
<path d="M67.7355 233.016C71.4902 233.016 74.4342 234.125 76.5675 236.344C78.7008 238.563 79.7675 242.189 79.7675 247.224H58.7115L58.5835 246.008H71.7035C71.7462 243.917 71.6182 241.997 71.3195 240.248C71.0208 238.456 70.5515 237.027 69.9115 235.96C69.2715 234.893 68.4182 234.36 67.3515 234.36C65.8582 234.36 64.5782 235.299 63.5115 237.176C62.4875 239.053 61.8688 242.168 61.6555 246.52L61.8475 246.904C61.8048 247.416 61.7622 247.949 61.7195 248.504C61.7195 249.059 61.7195 249.635 61.7195 250.232C61.7195 253.176 62.1248 255.565 62.9355 257.4C63.7888 259.235 64.8555 260.579 66.1355 261.432C67.4155 262.243 68.7168 262.648 70.0395 262.648C70.9355 262.648 71.8528 262.52 72.7915 262.264C73.7728 261.965 74.7542 261.453 75.7355 260.728C76.7168 259.96 77.6342 258.893 78.4875 257.528L79.6395 257.912C79.1275 259.533 78.3168 261.112 77.2075 262.648C76.0982 264.184 74.6902 265.443 72.9835 266.424C71.2768 267.405 69.2288 267.896 66.8395 267.896C63.9382 267.896 61.3782 267.277 59.1595 266.04C56.9408 264.803 55.1915 262.925 53.9115 260.408C52.6742 257.891 52.0555 254.691 52.0555 250.808C52.0555 246.84 52.7168 243.533 54.0395 240.888C55.4048 238.243 57.2608 236.28 59.6075 235C61.9968 233.677 64.7062 233.016 67.7355 233.016Z" fill="black"/>
<path d="M106.907 233.016C108.699 233.016 110.149 233.251 111.258 233.72C112.41 234.147 113.307 234.744 113.947 235.512C114.629 236.323 115.12 237.368 115.419 238.648C115.76 239.928 115.931 241.656 115.931 243.832V261.048C115.931 262.84 116.229 264.056 116.826 264.696C117.466 265.336 118.533 265.656 120.027 265.656V267C119.216 266.957 118 266.915 116.379 266.872C114.757 266.787 113.157 266.744 111.578 266.744C109.957 266.744 108.357 266.787 106.779 266.872C105.243 266.915 104.069 266.957 103.258 267V265.656C104.538 265.656 105.435 265.336 105.947 264.696C106.459 264.056 106.715 262.84 106.715 261.048V241.144C106.715 240.077 106.608 239.16 106.395 238.392C106.181 237.581 105.797 236.963 105.243 236.536C104.688 236.067 103.856 235.832 102.747 235.832C101.595 235.832 100.528 236.152 99.5465 236.792C98.6078 237.432 97.8398 238.328 97.2425 239.48C96.6878 240.589 96.4105 241.848 96.4105 243.256V261.048C96.4105 262.84 96.6665 264.056 97.1785 264.696C97.7332 265.336 98.6292 265.656 99.8665 265.656V267C99.0985 266.957 97.9678 266.915 96.4745 266.872C95.0238 266.787 93.5092 266.744 91.9305 266.744C90.3092 266.744 88.6452 266.787 86.9385 266.872C85.2318 266.915 83.9518 266.957 83.0985 267V265.656C84.5918 265.656 85.6372 265.336 86.2345 264.696C86.8745 264.056 87.1945 262.84 87.1945 261.048V240.888C87.1945 238.968 86.8958 237.56 86.2985 236.664C85.7438 235.725 84.6772 235.256 83.0985 235.256V233.912C84.4638 234.04 85.7865 234.104 87.0665 234.104C88.8585 234.104 90.5225 234.04 92.0585 233.912C93.6372 233.741 95.0878 233.507 96.4105 233.208V238.968C97.4772 236.792 98.9278 235.256 100.763 234.36C102.597 233.464 104.645 233.016 106.907 233.016Z" fill="black"/>
<path d="M153.02 233.912V235.192C152.209 235.405 151.441 235.917 150.715 236.728C149.99 237.496 149.286 238.819 148.604 240.696L139.579 266.04L137.212 270.52L123.259 238.84C122.534 237.176 121.809 236.173 121.084 235.832C120.401 235.448 119.804 235.256 119.292 235.256V233.912C120.7 234.04 122.15 234.147 123.644 234.232C125.18 234.275 126.651 234.296 128.059 234.296C129.809 234.296 131.409 234.253 132.859 234.168C134.31 234.083 135.676 233.997 136.956 233.912V235.256C136.102 235.256 135.292 235.32 134.523 235.448C133.798 235.533 133.286 235.832 132.988 236.344C132.732 236.813 132.86 237.645 133.372 238.84L141.436 258.296L140.859 258.68L145.596 245.432C146.406 243.128 146.748 241.251 146.62 239.8C146.492 238.307 146.022 237.197 145.212 236.472C144.401 235.704 143.292 235.277 141.883 235.192V233.912C142.566 233.955 143.27 233.997 143.995 234.04C144.721 234.04 145.446 234.061 146.172 234.104C146.897 234.104 147.537 234.104 148.092 234.104C148.945 234.104 149.841 234.083 150.779 234.04C151.718 233.997 152.465 233.955 153.02 233.912ZM139.579 266.04L137.148 272.888C136.721 273.955 136.273 274.851 135.803 275.576C135.377 276.344 134.886 276.963 134.331 277.432C133.734 277.944 132.966 278.328 132.027 278.584C131.089 278.883 130.001 279.032 128.764 279.032C127.74 279.032 126.673 278.861 125.563 278.52C124.497 278.179 123.601 277.624 122.876 276.856C122.15 276.088 121.787 275.107 121.787 273.912C121.787 272.589 122.257 271.523 123.196 270.712C124.134 269.944 125.371 269.56 126.908 269.56C128.316 269.56 129.467 269.901 130.363 270.584C131.259 271.267 131.708 272.269 131.708 273.592C131.708 274.445 131.43 275.256 130.876 276.024C130.364 276.792 129.574 277.368 128.508 277.752C128.721 277.795 128.977 277.816 129.275 277.816C129.574 277.816 129.809 277.816 129.98 277.816C131.26 277.816 132.39 277.411 133.372 276.6C134.353 275.789 135.163 274.509 135.803 272.76L138.044 266.168L139.579 266.04Z" fill="black"/>
<path d="M185.823 233.912V235.192C185.012 235.405 184.244 235.917 183.519 236.728C182.794 237.496 182.09 238.819 181.407 240.696L172.063 267.128C171.38 267.085 170.676 267.064 169.951 267.064C169.268 267.064 168.586 267.085 167.903 267.128L156.511 238.84C155.828 237.176 155.146 236.173 154.463 235.832C153.823 235.448 153.268 235.256 152.799 235.256V233.912C154.164 233.997 155.572 234.083 157.023 234.168C158.516 234.211 160.138 234.232 161.887 234.232C163.21 234.232 164.596 234.211 166.047 234.168C167.54 234.083 168.927 233.997 170.207 233.912V235.256C169.311 235.256 168.5 235.299 167.775 235.384C167.092 235.469 166.623 235.747 166.367 236.216C166.111 236.685 166.154 237.517 166.495 238.712L173.983 258.552L173.343 259.448L178.399 245.432C179.21 243.128 179.551 241.251 179.423 239.8C179.295 238.307 178.826 237.197 178.015 236.472C177.204 235.704 176.116 235.277 174.751 235.192V233.912C175.391 233.955 176.074 233.997 176.799 234.04C177.567 234.04 178.292 234.061 178.975 234.104C179.7 234.104 180.34 234.104 180.895 234.104C181.748 234.104 182.644 234.083 183.583 234.04C184.522 233.997 185.268 233.955 185.823 233.912Z" fill="black"/>
<path d="M202.986 233.016C206.74 233.016 209.684 234.125 211.818 236.344C213.951 238.563 215.018 242.189 215.018 247.224H193.962L193.833 246.008H206.954C206.996 243.917 206.868 241.997 206.57 240.248C206.271 238.456 205.801 237.027 205.161 235.96C204.521 234.893 203.668 234.36 202.602 234.36C201.108 234.36 199.828 235.299 198.762 237.176C197.738 239.053 197.119 242.168 196.906 246.52L197.098 246.904C197.055 247.416 197.012 247.949 196.969 248.504C196.969 249.059 196.969 249.635 196.969 250.232C196.969 253.176 197.375 255.565 198.186 257.4C199.039 259.235 200.105 260.579 201.385 261.432C202.665 262.243 203.967 262.648 205.29 262.648C206.186 262.648 207.103 262.52 208.042 262.264C209.023 261.965 210.004 261.453 210.986 260.728C211.967 259.96 212.884 258.893 213.738 257.528L214.889 257.912C214.378 259.533 213.567 261.112 212.458 262.648C211.348 264.184 209.94 265.443 208.234 266.424C206.527 267.405 204.479 267.896 202.09 267.896C199.188 267.896 196.628 267.277 194.41 266.04C192.191 264.803 190.441 262.925 189.161 260.408C187.924 257.891 187.305 254.691 187.305 250.808C187.305 246.84 187.967 243.533 189.29 240.888C190.655 238.243 192.511 236.28 194.857 235C197.247 233.677 199.956 233.016 202.986 233.016Z" fill="black"/>
<path d="M231.715 223.416V233.912H239.268V235.192H231.715V261.048C231.715 262.328 231.95 263.245 232.419 263.8C232.889 264.312 233.593 264.568 234.532 264.568C235.3 264.568 236.067 264.291 236.835 263.736C237.604 263.139 238.286 262.136 238.883 260.728L239.971 261.304C239.289 263.224 238.243 264.803 236.835 266.04C235.47 267.277 233.593 267.896 231.204 267.896C229.796 267.896 228.558 267.704 227.492 267.32C226.425 266.979 225.529 266.445 224.803 265.72C223.865 264.781 223.246 263.629 222.947 262.264C222.649 260.856 222.499 259.043 222.499 256.824V235.192H217.124V233.912H222.499V225.464C224.292 225.464 225.934 225.315 227.428 225.016C228.964 224.675 230.393 224.141 231.715 223.416Z" fill="black"/>
<defs>
<radialGradient id="paint0_radial_0_1" cx="0" cy="0" r="1" gradientUnits="userSpaceOnUse" gradientTransform="translate(126.719 118.077) rotate(92.3956) scale(161.095 138.497)">
<stop offset="0.015" stop-color="#FEFCF4"/>
<stop offset="0.695" stop-color="#473535"/>
</radialGradient>
</defs>
</svg>
