<svg width="337" height="219" viewBox="0 0 337 219" fill="none" xmlns="http://www.w3.org/2000/svg">
<rect width="337" height="219" fill="#F5F5F5"/>
<path d="M0.999997 5C185 -12 244 22 284 118C324 214 320 213 337 219C60.2 148.6 -2.33334 47 0.999997 5Z" fill="#1E4A4B"/>
<path d="M77.808 101.288C75.744 101.288 73.908 100.856 72.3 99.992C70.716 99.128 69.456 97.952 68.52 96.464C67.608 94.952 67.152 93.236 67.152 91.316C67.152 89.372 67.608 87.656 68.52 86.168C69.456 84.656 70.716 83.48 72.3 82.64C73.908 81.776 75.744 81.344 77.808 81.344C79.848 81.344 81.672 81.776 83.28 82.64C84.888 83.48 86.148 84.644 87.06 86.132C87.972 87.62 88.428 89.348 88.428 91.316C88.428 93.236 87.972 94.952 87.06 96.464C86.148 97.952 84.888 99.128 83.28 99.992C81.672 100.856 79.848 101.288 77.808 101.288ZM77.808 96.68C78.744 96.68 79.584 96.464 80.328 96.032C81.072 95.6 81.66 94.988 82.092 94.196C82.524 93.38 82.74 92.42 82.74 91.316C82.74 90.188 82.524 89.228 82.092 88.436C81.66 87.644 81.072 87.032 80.328 86.6C79.584 86.168 78.744 85.952 77.808 85.952C76.872 85.952 76.032 86.168 75.288 86.6C74.544 87.032 73.944 87.644 73.488 88.436C73.056 89.228 72.84 90.188 72.84 91.316C72.84 92.42 73.056 93.38 73.488 94.196C73.944 94.988 74.544 95.6 75.288 96.032C76.032 96.464 76.872 96.68 77.808 96.68Z" fill="#F5F5F5"/>
<path d="M98.6978 101.288C97.0418 101.288 95.4458 101.096 93.9098 100.712C92.3978 100.304 91.1978 99.8 90.3098 99.2L92.1818 95.168C93.0698 95.72 94.1138 96.176 95.3138 96.536C96.5378 96.872 97.7378 97.04 98.9138 97.04C100.21 97.04 101.122 96.884 101.65 96.572C102.202 96.26 102.478 95.828 102.478 95.276C102.478 94.82 102.262 94.484 101.83 94.268C101.422 94.028 100.87 93.848 100.174 93.728C99.4778 93.608 98.7098 93.488 97.8698 93.368C97.0538 93.248 96.2258 93.092 95.3858 92.9C94.5458 92.684 93.7778 92.372 93.0818 91.964C92.3858 91.556 91.8218 91.004 91.3898 90.308C90.9818 89.612 90.7778 88.712 90.7778 87.608C90.7778 86.384 91.1258 85.304 91.8218 84.368C92.5418 83.432 93.5738 82.7 94.9178 82.172C96.2618 81.62 97.8698 81.344 99.7418 81.344C101.062 81.344 102.406 81.488 103.774 81.776C105.142 82.064 106.282 82.484 107.194 83.036L105.322 87.032C104.386 86.48 103.438 86.108 102.478 85.916C101.542 85.7 100.63 85.592 99.7418 85.592C98.4938 85.592 97.5818 85.76 97.0058 86.096C96.4298 86.432 96.1418 86.864 96.1418 87.392C96.1418 87.872 96.3458 88.232 96.7538 88.472C97.1858 88.712 97.7498 88.904 98.4458 89.048C99.1418 89.192 99.8978 89.324 100.714 89.444C101.554 89.54 102.394 89.696 103.234 89.912C104.074 90.128 104.83 90.44 105.502 90.848C106.198 91.232 106.762 91.772 107.194 92.468C107.626 93.14 107.842 94.028 107.842 95.132C107.842 96.332 107.482 97.4 106.762 98.336C106.042 99.248 104.998 99.968 103.63 100.496C102.286 101.024 100.642 101.288 98.6978 101.288Z" fill="#F5F5F5"/>
<path d="M120.919 101.288C118.711 101.288 116.767 100.856 115.087 99.992C113.431 99.128 112.147 97.952 111.235 96.464C110.323 94.952 109.867 93.236 109.867 91.316C109.867 89.372 110.311 87.656 111.199 86.168C112.111 84.656 113.347 83.48 114.907 82.64C116.467 81.776 118.231 81.344 120.199 81.344C122.095 81.344 123.799 81.752 125.311 82.568C126.847 83.36 128.059 84.512 128.947 86.024C129.835 87.512 130.279 89.3 130.279 91.388C130.279 91.604 130.267 91.856 130.243 92.144C130.219 92.408 130.195 92.66 130.171 92.9H114.439V89.624H127.219L125.059 90.596C125.059 89.588 124.855 88.712 124.447 87.968C124.039 87.224 123.475 86.648 122.755 86.24C122.035 85.808 121.195 85.592 120.235 85.592C119.275 85.592 118.423 85.808 117.679 86.24C116.959 86.648 116.395 87.236 115.987 88.004C115.579 88.748 115.375 89.636 115.375 90.668V91.532C115.375 92.588 115.603 93.524 116.059 94.34C116.539 95.132 117.199 95.744 118.039 96.176C118.903 96.584 119.911 96.788 121.063 96.788C122.095 96.788 122.995 96.632 123.763 96.32C124.555 96.008 125.275 95.54 125.923 94.916L128.911 98.156C128.023 99.164 126.907 99.944 125.563 100.496C124.219 101.024 122.671 101.288 120.919 101.288Z" fill="#F5F5F5"/>
<path d="M142.334 101.288C140.51 101.288 138.866 100.88 137.402 100.064C135.938 99.224 134.774 98.06 133.91 96.572C133.07 95.084 132.65 93.332 132.65 91.316C132.65 89.276 133.07 87.512 133.91 86.024C134.774 84.536 135.938 83.384 137.402 82.568C138.866 81.752 140.51 81.344 142.334 81.344C143.966 81.344 145.394 81.704 146.618 82.424C147.842 83.144 148.79 84.236 149.462 85.7C150.134 87.164 150.47 89.036 150.47 91.316C150.47 93.572 150.146 95.444 149.498 96.932C148.85 98.396 147.914 99.488 146.69 100.208C145.49 100.928 144.038 101.288 142.334 101.288ZM143.306 96.68C144.218 96.68 145.046 96.464 145.79 96.032C146.534 95.6 147.122 94.988 147.554 94.196C148.01 93.38 148.238 92.42 148.238 91.316C148.238 90.188 148.01 89.228 147.554 88.436C147.122 87.644 146.534 87.032 145.79 86.6C145.046 86.168 144.218 85.952 143.306 85.952C142.37 85.952 141.53 86.168 140.786 86.6C140.042 87.032 139.442 87.644 138.986 88.436C138.554 89.228 138.338 90.188 138.338 91.316C138.338 92.42 138.554 93.38 138.986 94.196C139.442 94.988 140.042 95.6 140.786 96.032C141.53 96.464 142.37 96.68 143.306 96.68ZM148.382 101V97.04L148.49 91.28L148.13 85.556V74.288H153.746V101H148.382Z" fill="#F5F5F5"/>
<path d="M158.944 101V81.632H164.56V101H158.944ZM161.752 78.932C160.72 78.932 159.88 78.632 159.232 78.032C158.584 77.432 158.26 76.688 158.26 75.8C158.26 74.912 158.584 74.168 159.232 73.568C159.88 72.968 160.72 72.668 161.752 72.668C162.784 72.668 163.624 72.956 164.272 73.532C164.92 74.084 165.244 74.804 165.244 75.692C165.244 76.628 164.92 77.408 164.272 78.032C163.648 78.632 162.808 78.932 161.752 78.932Z" fill="#F5F5F5"/>
<path d="M179.132 101.288C177.044 101.288 175.184 100.868 173.552 100.028C171.92 99.164 170.636 97.976 169.7 96.464C168.788 94.952 168.332 93.236 168.332 91.316C168.332 89.372 168.788 87.656 169.7 86.168C170.636 84.656 171.92 83.48 173.552 82.64C175.184 81.776 177.044 81.344 179.132 81.344C181.172 81.344 182.948 81.776 184.46 82.64C185.972 83.48 187.088 84.692 187.808 86.276L183.452 88.616C182.948 87.704 182.312 87.032 181.544 86.6C180.8 86.168 179.984 85.952 179.096 85.952C178.136 85.952 177.272 86.168 176.504 86.6C175.736 87.032 175.124 87.644 174.668 88.436C174.236 89.228 174.02 90.188 174.02 91.316C174.02 92.444 174.236 93.404 174.668 94.196C175.124 94.988 175.736 95.6 176.504 96.032C177.272 96.464 178.136 96.68 179.096 96.68C179.984 96.68 180.8 96.476 181.544 96.068C182.312 95.636 182.948 94.952 183.452 94.016L187.808 96.392C187.088 97.952 185.972 99.164 184.46 100.028C182.948 100.868 181.172 101.288 179.132 101.288Z" fill="#F5F5F5"/>
<path d="M200.011 101.288C197.947 101.288 196.111 100.856 194.503 99.992C192.919 99.128 191.659 97.952 190.723 96.464C189.811 94.952 189.355 93.236 189.355 91.316C189.355 89.372 189.811 87.656 190.723 86.168C191.659 84.656 192.919 83.48 194.503 82.64C196.111 81.776 197.947 81.344 200.011 81.344C202.051 81.344 203.875 81.776 205.483 82.64C207.091 83.48 208.351 84.644 209.263 86.132C210.175 87.62 210.631 89.348 210.631 91.316C210.631 93.236 210.175 94.952 209.263 96.464C208.351 97.952 207.091 99.128 205.483 99.992C203.875 100.856 202.051 101.288 200.011 101.288ZM200.011 96.68C200.947 96.68 201.787 96.464 202.531 96.032C203.275 95.6 203.863 94.988 204.295 94.196C204.727 93.38 204.943 92.42 204.943 91.316C204.943 90.188 204.727 89.228 204.295 88.436C203.863 87.644 203.275 87.032 202.531 86.6C201.787 86.168 200.947 85.952 200.011 85.952C199.075 85.952 198.235 86.168 197.491 86.6C196.747 87.032 196.147 87.644 195.691 88.436C195.259 89.228 195.043 90.188 195.043 91.316C195.043 92.42 195.259 93.38 195.691 94.196C196.147 94.988 196.747 95.6 197.491 96.032C198.235 96.464 199.075 96.68 200.011 96.68Z" fill="#F5F5F5"/>
<path d="M223.997 101.288C221.789 101.288 219.845 100.856 218.165 99.992C216.509 99.128 215.225 97.952 214.313 96.464C213.401 94.952 212.945 93.236 212.945 91.316C212.945 89.372 213.389 87.656 214.277 86.168C215.189 84.656 216.425 83.48 217.985 82.64C219.545 81.776 221.309 81.344 223.277 81.344C225.173 81.344 226.877 81.752 228.389 82.568C229.925 83.36 231.137 84.512 232.025 86.024C232.913 87.512 233.357 89.3 233.357 91.388C233.357 91.604 233.345 91.856 233.321 92.144C233.297 92.408 233.273 92.66 233.249 92.9H217.517V89.624H230.297L228.137 90.596C228.137 89.588 227.933 88.712 227.525 87.968C227.117 87.224 226.553 86.648 225.833 86.24C225.113 85.808 224.273 85.592 223.313 85.592C222.353 85.592 221.501 85.808 220.757 86.24C220.037 86.648 219.473 87.236 219.065 88.004C218.657 88.748 218.453 89.636 218.453 90.668V91.532C218.453 92.588 218.681 93.524 219.137 94.34C219.617 95.132 220.277 95.744 221.117 96.176C221.981 96.584 222.989 96.788 224.141 96.788C225.173 96.788 226.073 96.632 226.841 96.32C227.633 96.008 228.353 95.54 229.001 94.916L231.989 98.156C231.101 99.164 229.985 99.944 228.641 100.496C227.297 101.024 225.749 101.288 223.997 101.288ZM222.053 79.148L215.537 73.964H221.585L226.445 79.148H222.053Z" fill="#F5F5F5"/>
<path d="M243.612 101.288C241.956 101.288 240.36 101.096 238.824 100.712C237.312 100.304 236.112 99.8 235.224 99.2L237.096 95.168C237.984 95.72 239.028 96.176 240.228 96.536C241.452 96.872 242.652 97.04 243.828 97.04C245.124 97.04 246.036 96.884 246.564 96.572C247.116 96.26 247.392 95.828 247.392 95.276C247.392 94.82 247.176 94.484 246.744 94.268C246.336 94.028 245.784 93.848 245.088 93.728C244.392 93.608 243.624 93.488 242.784 93.368C241.968 93.248 241.14 93.092 240.3 92.9C239.46 92.684 238.692 92.372 237.996 91.964C237.3 91.556 236.736 91.004 236.304 90.308C235.896 89.612 235.692 88.712 235.692 87.608C235.692 86.384 236.04 85.304 236.736 84.368C237.456 83.432 238.488 82.7 239.832 82.172C241.176 81.62 242.784 81.344 244.656 81.344C245.976 81.344 247.32 81.488 248.688 81.776C250.056 82.064 251.196 82.484 252.108 83.036L250.236 87.032C249.3 86.48 248.352 86.108 247.392 85.916C246.456 85.7 245.544 85.592 244.656 85.592C243.408 85.592 242.496 85.76 241.92 86.096C241.344 86.432 241.056 86.864 241.056 87.392C241.056 87.872 241.26 88.232 241.668 88.472C242.1 88.712 242.664 88.904 243.36 89.048C244.056 89.192 244.812 89.324 245.628 89.444C246.468 89.54 247.308 89.696 248.148 89.912C248.988 90.128 249.744 90.44 250.416 90.848C251.112 91.232 251.676 91.772 252.108 92.468C252.54 93.14 252.756 94.028 252.756 95.132C252.756 96.332 252.396 97.4 251.676 98.336C250.956 99.248 249.912 99.968 248.544 100.496C247.2 101.024 245.556 101.288 243.612 101.288Z" fill="#F5F5F5"/>
</svg>
