<svg width="157" height="69" viewBox="0 0 157 39" fill="none" xmlns="http://www.w3.org/2000/svg">
<rect width="157" height="69" fill="#F5F5F5"/>
<path d="M11.65 38.4C9.35 38.4 7.13333 38.1333 5 37.6C2.9 37.0333 1.23333 36.3333 0 35.5L2.6 29.9C3.83333 30.6667 5.28333 31.3 6.95 31.8C8.65 32.2667 10.3167 32.5 11.95 32.5C13.75 32.5 15.0167 32.2833 15.75 31.85C16.5167 31.4167 16.9 30.8167 16.9 30.05C16.9 29.4167 16.6 28.95 16 28.65C15.4333 28.3167 14.6667 28.0667 13.7 27.9C12.7333 27.7333 11.6667 27.5667 10.5 27.4C9.36667 27.2333 8.21667 27.0167 7.05 26.75C5.88333 26.45 4.81667 26.0167 3.85 25.45C2.88333 24.8833 2.1 24.1167 1.5 23.15C0.933333 22.1833 0.65 20.9333 0.65 19.4C0.65 17.7 1.13333 16.2 2.1 14.9C3.1 13.6 4.53333 12.5833 6.4 11.85C8.26667 11.0833 10.5 10.7 13.1 10.7C14.9333 10.7 16.8 10.9 18.7 11.3C20.6 11.7 22.1833 12.2833 23.45 13.05L20.85 18.6C19.55 17.8333 18.2333 17.3167 16.9 17.05C15.6 16.75 14.3333 16.6 13.1 16.6C11.3667 16.6 10.1 16.8333 9.3 17.3C8.5 17.7667 8.1 18.3667 8.1 19.1C8.1 19.7667 8.38333 20.2667 8.95 20.6C9.55 20.9333 10.3333 21.2 11.3 21.4C12.2667 21.6 13.3167 21.7833 14.45 21.95C15.6167 22.0833 16.7833 22.3 17.95 22.6C19.1167 22.9 20.1667 23.3333 21.1 23.9C22.0667 24.4333 22.85 25.1833 23.45 26.15C24.05 27.0833 24.35 28.3167 24.35 29.85C24.35 31.5167 23.85 33 22.85 34.3C21.85 35.5667 20.4 36.5667 18.5 37.3C16.6333 38.0333 14.35 38.4 11.65 38.4Z" fill="#A17474"/>
<path d="M35.9742 38L24.6742 11.1H32.7242L42.1242 34.25H38.1242L47.8742 11.1H55.3742L44.0242 38H35.9742Z" fill="#A17474"/>
<path d="M70.6246 38.4C67.7579 38.4 65.2079 37.8 62.9746 36.6C60.7746 35.4 59.0246 33.7667 57.7246 31.7C56.4579 29.6 55.8246 27.2167 55.8246 24.55C55.8246 21.85 56.4579 19.4667 57.7246 17.4C59.0246 15.3 60.7746 13.6667 62.9746 12.5C65.2079 11.3 67.7579 10.7 70.6246 10.7C73.4579 10.7 75.9913 11.3 78.2246 12.5C80.4579 13.6667 82.2079 15.2833 83.4746 17.35C84.7413 19.4167 85.3746 21.8167 85.3746 24.55C85.3746 27.2167 84.7413 29.6 83.4746 31.7C82.2079 33.7667 80.4579 35.4 78.2246 36.6C75.9913 37.8 73.4579 38.4 70.6246 38.4ZM70.6246 32C71.9246 32 73.0913 31.7 74.1246 31.1C75.1579 30.5 75.9746 29.65 76.5746 28.55C77.1746 27.4167 77.4746 26.0833 77.4746 24.55C77.4746 22.9833 77.1746 21.65 76.5746 20.55C75.9746 19.45 75.1579 18.6 74.1246 18C73.0913 17.4 71.9246 17.1 70.6246 17.1C69.3246 17.1 68.1579 17.4 67.1246 18C66.0913 18.6 65.2579 19.45 64.6246 20.55C64.0246 21.65 63.7246 22.9833 63.7246 24.55C63.7246 26.0833 64.0246 27.4167 64.6246 28.55C65.2579 29.65 66.0913 30.5 67.1246 31.1C68.1579 31.7 69.3246 32 70.6246 32Z" fill="#A17474"/>
<path d="M90.5883 38V0.899998H98.3883V38H90.5883Z" fill="#A17474"/>
<path d="M118.629 38.4C115.463 38.4 112.996 37.6 111.229 36C109.463 34.3667 108.579 31.95 108.579 28.75V5.15H116.379V28.65C116.379 29.7833 116.679 30.6667 117.279 31.3C117.879 31.9 118.696 32.2 119.729 32.2C120.963 32.2 122.013 31.8667 122.879 31.2L124.979 36.7C124.179 37.2667 123.213 37.7 122.079 38C120.979 38.2667 119.829 38.4 118.629 38.4ZM104.429 17.7V11.7H123.079V17.7H104.429Z" fill="#A17474"/>
<path d="M129.44 21V10.24H132.56V21H129.44ZM131 8.74C130.427 8.74 129.96 8.57333 129.6 8.24C129.24 7.90667 129.06 7.49333 129.06 7C129.06 6.50667 129.24 6.09333 129.6 5.76C129.96 5.42667 130.427 5.26 131 5.26C131.573 5.26 132.04 5.42 132.4 5.74C132.76 6.04667 132.94 6.44667 132.94 6.94C132.94 7.46 132.76 7.89333 132.4 8.24C132.053 8.57333 131.587 8.74 131 8.74Z" fill="black"/>
<path d="M141.996 10.08C142.849 10.08 143.609 10.2533 144.276 10.6C144.956 10.9333 145.489 11.4533 145.876 12.16C146.262 12.8533 146.456 13.7467 146.456 14.84V21H143.336V15.32C143.336 14.4533 143.142 13.8133 142.756 13.4C142.382 12.9867 141.849 12.78 141.156 12.78C140.662 12.78 140.216 12.8867 139.816 13.1C139.429 13.3 139.122 13.6133 138.896 14.04C138.682 14.4667 138.576 15.0133 138.576 15.68V21H135.456V10.24H138.436V13.22L137.876 12.32C138.262 11.6 138.816 11.0467 139.536 10.66C140.256 10.2733 141.076 10.08 141.996 10.08Z" fill="black"/>
<path d="M153.684 21.16C152.417 21.16 151.43 20.84 150.724 20.2C150.017 19.5467 149.664 18.58 149.664 17.3V7.86H152.784V17.26C152.784 17.7133 152.904 18.0667 153.144 18.32C153.384 18.56 153.71 18.68 154.124 18.68C154.617 18.68 155.037 18.5467 155.384 18.28L156.224 20.48C155.904 20.7067 155.517 20.88 155.064 21C154.624 21.1067 154.164 21.16 153.684 21.16ZM148.004 12.88V10.48H155.464V12.88H148.004Z" fill="black"/>
</svg>
