<svg width="204" height="30" viewBox="0 0 204 30" fill="none" xmlns="http://www.w3.org/2000/svg">
<rect width="204" height="30" fill="#F5F5F5"/>
<path d="M11.52 29.48C9.27999 29.48 7.13333 29.1867 5.08 28.6C3.02666 27.9867 1.37333 27.2 0.119995 26.24L2.32 21.36C3.52 22.2133 4.93333 22.92 6.56 23.48C8.21333 24.0133 9.88 24.28 11.56 24.28C12.84 24.28 13.8667 24.16 14.64 23.92C15.44 23.6533 16.0267 23.2933 16.4 22.84C16.7733 22.3867 16.96 21.8667 16.96 21.28C16.96 20.5333 16.6667 19.9467 16.08 19.52C15.4933 19.0667 14.72 18.7067 13.76 18.44C12.8 18.1467 11.7333 17.88 10.56 17.64C9.41333 17.3733 8.25333 17.0533 7.08 16.68C5.93333 16.3067 4.88 15.8267 3.92 15.24C2.96 14.6533 2.17333 13.88 1.56 12.92C0.973329 11.96 0.679995 10.7333 0.679995 9.24C0.679995 7.64 1.10666 6.18667 1.96 4.88C2.84 3.54667 4.14666 2.49333 5.88 1.72C7.64 0.92 9.84 0.52 12.48 0.52C14.24 0.52 15.9733 0.733333 17.68 1.16C19.3867 1.56 20.8933 2.17333 22.2 3L20.2 7.92C18.8933 7.17333 17.5867 6.62667 16.28 6.28C14.9733 5.90667 13.6933 5.72 12.44 5.72C11.1867 5.72 10.16 5.86667 9.35999 6.16C8.56 6.45333 7.98666 6.84 7.64 7.32C7.29333 7.77333 7.12 8.30667 7.12 8.92C7.12 9.64 7.41333 10.2267 8 10.68C8.58666 11.1067 9.36 11.4533 10.32 11.72C11.28 11.9867 12.3333 12.2533 13.48 12.52C14.6533 12.7867 15.8133 13.0933 16.96 13.44C18.1333 13.7867 19.2 14.2533 20.16 14.84C21.12 15.4267 21.8933 16.2 22.48 17.16C23.0933 18.12 23.4 19.3333 23.4 20.8C23.4 22.3733 22.96 23.8133 22.08 25.12C21.2 26.4267 19.88 27.48 18.12 28.28C16.3867 29.08 14.1867 29.48 11.52 29.48Z" fill="black"/>
<path d="M30.5291 29.32C29.4624 29.32 28.5424 28.96 27.7691 28.24C27.0224 27.4933 26.6491 26.5467 26.6491 25.4C26.6491 24.2533 27.0224 23.3333 27.7691 22.64C28.5424 21.92 29.4624 21.56 30.5291 21.56C31.6224 21.56 32.5424 21.92 33.2891 22.64C34.0357 23.3333 34.4091 24.2533 34.4091 25.4C34.4091 26.5467 34.0357 27.4933 33.2891 28.24C32.5424 28.96 31.6224 29.32 30.5291 29.32Z" fill="black"/>
<path d="M44.2744 29L35.1144 0.999999H41.8344L49.7944 25.8H46.4344L54.7544 0.999999H60.7544L68.7544 25.8H65.5144L73.6744 0.999999H79.8744L70.7144 29H63.7544L56.6744 7.24H58.5144L51.2344 29H44.2744Z" fill="black"/>
<path d="M84.4744 29.32C83.4077 29.32 82.4877 28.96 81.7144 28.24C80.9677 27.4933 80.5944 26.5467 80.5944 25.4C80.5944 24.2533 80.9677 23.3333 81.7144 22.64C82.4877 21.92 83.4077 21.56 84.4744 21.56C85.5677 21.56 86.4877 21.92 87.2344 22.64C87.981 23.3333 88.3544 24.2533 88.3544 25.4C88.3544 26.5467 87.981 27.4933 87.2344 28.24C86.4877 28.96 85.5677 29.32 84.4744 29.32Z" fill="black"/>
<path d="M105.842 29.48C103.629 29.48 101.575 29.12 99.6819 28.4C97.8152 27.68 96.1885 26.6667 94.8019 25.36C93.4419 24.0533 92.3752 22.52 91.6019 20.76C90.8552 19 90.4819 17.08 90.4819 15C90.4819 12.92 90.8552 11 91.6019 9.24C92.3752 7.48 93.4552 5.94667 94.8419 4.64C96.2285 3.33333 97.8552 2.32 99.7219 1.6C101.589 0.88 103.615 0.52 105.802 0.52C108.015 0.52 110.042 0.88 111.882 1.6C113.749 2.32 115.362 3.33333 116.722 4.64C118.109 5.94667 119.189 7.48 119.962 9.24C120.735 10.9733 121.122 12.8933 121.122 15C121.122 17.08 120.735 19.0133 119.962 20.8C119.189 22.56 118.109 24.0933 116.722 25.4C115.362 26.68 113.749 27.68 111.882 28.4C110.042 29.12 108.029 29.48 105.842 29.48ZM105.802 23.96C107.055 23.96 108.202 23.7467 109.242 23.32C110.309 22.8933 111.242 22.28 112.042 21.48C112.842 20.68 113.455 19.7333 113.882 18.64C114.335 17.5467 114.562 16.3333 114.562 15C114.562 13.6667 114.335 12.4533 113.882 11.36C113.455 10.2667 112.842 9.32 112.042 8.52C111.269 7.72 110.349 7.10667 109.282 6.68C108.215 6.25333 107.055 6.04 105.802 6.04C104.549 6.04 103.389 6.25333 102.322 6.68C101.282 7.10667 100.362 7.72 99.5619 8.52C98.7619 9.32 98.1352 10.2667 97.6819 11.36C97.2552 12.4533 97.0419 13.6667 97.0419 15C97.0419 16.3067 97.2552 17.52 97.6819 18.64C98.1352 19.7333 98.7485 20.68 99.5219 21.48C100.322 22.28 101.255 22.8933 102.322 23.32C103.389 23.7467 104.549 23.96 105.802 23.96Z" fill="black"/>
<path d="M127.131 29.32C126.064 29.32 125.144 28.96 124.371 28.24C123.624 27.4933 123.251 26.5467 123.251 25.4C123.251 24.2533 123.624 23.3333 124.371 22.64C125.144 21.92 126.064 21.56 127.131 21.56C128.224 21.56 129.144 21.92 129.891 22.64C130.637 23.3333 131.011 24.2533 131.011 25.4C131.011 26.5467 130.637 27.4933 129.891 28.24C129.144 28.96 128.224 29.32 127.131 29.32Z" fill="black"/>
<path d="M135.679 29V0.999999H147.799C150.306 0.999999 152.466 1.41333 154.279 2.24C156.093 3.04 157.493 4.2 158.479 5.72C159.466 7.24 159.959 9.05333 159.959 11.16C159.959 13.24 159.466 15.04 158.479 16.56C157.493 18.0533 156.093 19.2 154.279 20C152.466 20.8 150.306 21.2 147.799 21.2H139.279L142.159 18.36V29H135.679ZM153.479 29L146.479 18.84H153.399L160.479 29H153.479ZM142.159 19.08L139.279 16.04H147.439C149.439 16.04 150.933 15.6133 151.919 14.76C152.906 13.88 153.399 12.68 153.399 11.16C153.399 9.61333 152.906 8.41333 151.919 7.56C150.933 6.70667 149.439 6.28 147.439 6.28H139.279L142.159 3.2V19.08Z" fill="black"/>
<path d="M167.013 29.32C165.947 29.32 165.027 28.96 164.253 28.24C163.507 27.4933 163.133 26.5467 163.133 25.4C163.133 24.2533 163.507 23.3333 164.253 22.64C165.027 21.92 165.947 21.56 167.013 21.56C168.107 21.56 169.027 21.92 169.773 22.64C170.52 23.3333 170.893 24.2533 170.893 25.4C170.893 26.5467 170.52 27.4933 169.773 28.24C169.027 28.96 168.107 29.32 167.013 29.32Z" fill="black"/>
<path d="M175.562 29V0.999999H188.282C191.322 0.999999 194.002 1.58667 196.322 2.76C198.642 3.90667 200.456 5.52 201.762 7.6C203.069 9.68 203.722 12.1467 203.722 15C203.722 17.8267 203.069 20.2933 201.762 22.4C200.456 24.48 198.642 26.1067 196.322 27.28C194.002 28.4267 191.322 29 188.282 29H175.562ZM182.042 23.68H187.962C189.829 23.68 191.442 23.3333 192.802 22.64C194.189 21.92 195.256 20.9067 196.002 19.6C196.776 18.2933 197.162 16.76 197.162 15C197.162 13.2133 196.776 11.68 196.002 10.4C195.256 9.09333 194.189 8.09333 192.802 7.4C191.442 6.68 189.829 6.32 187.962 6.32H182.042V23.68Z" fill="black"/>
</svg>
