<svg width="306" height="161" viewBox="0 0 306 161" fill="none" xmlns="http://www.w3.org/2000/svg">
<rect width="306" height="161" fill="#F5F5F5"/>
<mask id="path-1-outside-1_0_1" maskUnits="userSpaceOnUse" x="0" y="-0.00454712" width="306" height="161" fill="black">
<rect fill="white" y="-0.00454712" width="306" height="161"/>
<path d="M2.66085 1.99999C74.5753 2.79092 72.9242 106.733 63 159L178 1.99999H2.66085Z"/>
<path d="M58.6562 88.0938C65.6562 88.3438 71.0938 88.4688 74.9688 88.4688C78.8438 88.4688 84.2812 88.3438 91.2812 88.0938C91.4062 88.5938 91.4688 88.9375 91.4688 89.125C91.4688 89.4688 91.4062 89.8594 91.2812 90.2969C89.8438 90.4219 88.6719 90.5625 87.7656 90.7188C86.8906 90.8438 85.7969 91.0625 84.4844 91.375C83.2031 91.6875 82.2188 92.1406 81.5312 92.7344C80.8438 93.2969 80.4844 93.9844 80.4531 94.7969C80.0469 105.422 79.8438 115.312 79.8438 124.469C79.8438 131.156 80.0156 139.859 80.3594 150.578C80.3906 151.391 80.75 152.094 81.4375 152.688C82.125 153.25 83.1094 153.688 84.3906 154C85.7031 154.312 86.7969 154.547 87.6719 154.703C88.5781 154.828 89.75 154.953 91.1875 155.078C91.3125 155.453 91.375 155.875 91.375 156.344C91.375 156.594 91.3125 156.906 91.1875 157.281C85.875 157.094 80.4375 157 74.875 157C69.25 157 63.8125 157.094 58.5625 157.281C58.4375 156.906 58.375 156.594 58.375 156.344C58.375 155.812 58.4375 155.391 58.5625 155.078C59.5 154.984 60.25 154.906 60.8125 154.844C61.375 154.781 62.1406 154.672 63.1094 154.516C64.1094 154.359 64.9062 154.188 65.5 154C66.125 153.781 66.7656 153.516 67.4219 153.203C68.0781 152.891 68.5625 152.516 68.875 152.078C69.2188 151.641 69.3906 151.141 69.3906 150.578C69.7656 140.797 69.9531 130.938 69.9531 121C69.9531 110.875 69.7969 102.141 69.4844 94.7969C69.4531 93.9844 69.0938 93.2969 68.4062 92.7344C67.7188 92.1406 66.7188 91.6875 65.4062 91.375C64.125 91.0625 63.0312 90.8438 62.125 90.7188C61.25 90.5625 60.0938 90.4219 58.6562 90.2969C58.5312 89.7344 58.4688 89.3438 58.4688 89.125C58.4688 88.8125 58.5312 88.4688 58.6562 88.0938Z"/>
<path d="M123.25 155.078C123.438 155.453 123.531 155.844 123.531 156.25C123.531 156.562 123.438 156.906 123.25 157.281C119.125 157.094 115.125 157 111.25 157C107.438 157 103.469 157.094 99.3438 157.281C99.2188 156.781 99.1562 156.438 99.1562 156.25C99.1562 156.094 99.2188 155.703 99.3438 155.078C100.375 154.953 101.219 154.828 101.875 154.703C102.531 154.547 103.344 154.312 104.312 154C105.281 153.688 106.016 153.25 106.516 152.688C107.016 152.094 107.281 151.391 107.312 150.578C107.438 147.484 107.5 143.734 107.5 139.328C107.5 137.859 107.484 135.359 107.453 131.828C107.422 128.297 107.406 125.203 107.406 122.547C105.625 121.453 102.625 120.812 98.4062 120.625C98.2812 120.125 98.2188 119.734 98.2188 119.453C98.2188 119.266 98.2812 118.922 98.4062 118.422C104.469 117.797 109.75 116.516 114.25 114.578C115.031 114.891 115.578 115.297 115.891 115.797V123.203C118.922 120.547 121.828 118.422 124.609 116.828C127.391 115.203 130.203 114.391 133.047 114.391C136.609 114.391 139.125 115.391 140.594 117.391C142.094 119.391 142.875 122.516 142.938 126.766L143.406 150.578C143.438 151.391 143.672 152.094 144.109 152.688C144.578 153.25 145.234 153.688 146.078 154C146.953 154.312 147.672 154.547 148.234 154.703C148.797 154.828 149.531 154.953 150.438 155.078C150.562 155.703 150.625 156.125 150.625 156.344C150.625 156.594 150.562 156.906 150.438 157.281C146.406 157.094 142.688 157 139.281 157C135.969 157 132.297 157.094 128.266 157.281C128.141 156.781 128.078 156.406 128.078 156.156C128.078 155.938 128.141 155.578 128.266 155.078C129.078 154.953 129.75 154.828 130.281 154.703C130.844 154.547 131.469 154.312 132.156 154C132.875 153.688 133.406 153.25 133.75 152.688C134.125 152.094 134.312 151.391 134.312 150.578L134.406 128.312C134.406 122.656 132.703 119.828 129.297 119.828C126.109 119.828 121.641 121.953 115.891 126.203C115.891 135.297 116.016 143.422 116.266 150.578C116.297 151.391 116.531 152.094 116.969 152.688C117.438 153.25 118.094 153.688 118.938 154C119.781 154.312 120.484 154.547 121.047 154.703C121.609 154.828 122.344 154.953 123.25 155.078Z"/>
<path d="M180.531 89.5938C186.438 89.0312 191.719 87.75 196.375 85.75C197.188 86.0938 197.719 86.5156 197.969 87.0156C197.969 122.422 198.109 143.609 198.391 150.578C198.422 151.391 198.656 152.094 199.094 152.688C199.562 153.25 200.219 153.688 201.062 154C201.906 154.312 202.609 154.547 203.172 154.703C203.734 154.828 204.469 154.953 205.375 155.078C205.5 155.578 205.562 155.969 205.562 156.25C205.562 156.438 205.5 156.781 205.375 157.281C204.281 157.219 203.156 157.156 202 157.094C200.875 157.031 199.984 156.984 199.328 156.953C198.672 156.922 198.062 156.906 197.5 156.906C197.031 156.906 196.5 156.922 195.906 156.953C195.312 156.984 194.5 157.031 193.469 157.094C192.438 157.156 191.422 157.219 190.422 157.281C190.266 157.219 190.125 157.141 190 157.047C189.906 156.984 189.828 156.938 189.766 156.906C189.734 156.844 189.688 156.766 189.625 156.672C189.562 156.547 189.516 156.469 189.484 156.438C189.453 156.406 189.406 156.312 189.344 156.156C189.312 155.969 189.281 155.859 189.25 155.828C189.375 155.078 189.438 153.391 189.438 150.766C184.281 155.828 179.516 158.359 175.141 158.359C170.328 158.359 166.406 156.547 163.375 152.922C160.344 149.297 158.828 144.359 158.828 138.109C158.828 135.953 159.078 133.797 159.578 131.641C160.078 129.484 160.906 127.359 162.062 125.266C163.219 123.172 164.641 121.328 166.328 119.734C168.016 118.141 170.156 116.859 172.75 115.891C175.344 114.891 178.219 114.391 181.375 114.391C183.719 114.391 186.469 114.891 189.625 115.891C189.562 109.953 189.531 102.562 189.531 93.7188C187.75 92.6875 184.75 92.0469 180.531 91.7969C180.406 91.2969 180.344 90.9219 180.344 90.6719C180.344 90.4531 180.406 90.0938 180.531 89.5938ZM179.641 152.219C182.766 152.219 186.062 150.547 189.531 147.203C189.594 144.141 189.625 138.344 189.625 129.812V123.016C187.469 119.297 184.172 117.438 179.734 117.438C178.797 117.438 177.859 117.578 176.922 117.859C175.984 118.141 174.984 118.703 173.922 119.547C172.859 120.391 171.922 121.469 171.109 122.781C170.328 124.094 169.672 125.922 169.141 128.266C168.609 130.578 168.344 133.25 168.344 136.281C168.344 140.906 169.297 144.719 171.203 147.719C173.141 150.719 175.953 152.219 179.641 152.219Z"/>
<path d="M249.25 132.156H223.703C223.578 134.031 223.516 135.688 223.516 137.125C223.609 141.781 224.969 145.516 227.594 148.328C230.219 151.109 233.734 152.5 238.141 152.5C239.328 152.5 240.438 152.375 241.469 152.125C242.5 151.844 243.344 151.531 244 151.188C244.688 150.844 245.391 150.344 246.109 149.688C246.828 149.031 247.344 148.516 247.656 148.141C248 147.734 248.453 147.141 249.016 146.359C249.578 145.547 249.953 145.031 250.141 144.812C250.891 144.969 251.5 145.312 251.969 145.844C250.406 150.031 247.984 153.172 244.703 155.266C241.422 157.328 237.859 158.359 234.016 158.359C232.109 158.359 230.25 158.109 228.438 157.609C226.656 157.141 224.922 156.359 223.234 155.266C221.547 154.172 220.078 152.828 218.828 151.234C217.578 149.609 216.578 147.594 215.828 145.188C215.078 142.75 214.703 140.062 214.703 137.125C214.703 130.531 216.719 125.094 220.75 120.812C224.781 116.531 229.734 114.391 235.609 114.391C238.203 114.391 240.453 114.766 242.359 115.516C244.297 116.234 245.797 117.219 246.859 118.469C247.953 119.719 248.75 121.094 249.25 122.594C249.781 124.062 250.047 125.641 250.047 127.328C250.047 128.891 249.781 130.5 249.25 132.156ZM234.484 117.438C232.328 117.438 230.281 118.391 228.344 120.297C226.438 122.203 225.062 125.094 224.219 128.969H241.094C241.406 127.781 241.562 126.75 241.562 125.875C241.562 123.438 241 121.422 239.875 119.828C238.75 118.234 236.953 117.438 234.484 117.438Z"/>
<path d="M256.656 115.422C260.781 115.609 264.781 115.703 268.656 115.703C271.562 115.703 275.031 115.609 279.062 115.422C279.188 115.922 279.25 116.312 279.25 116.594C279.25 116.781 279.188 117.125 279.062 117.625C278.281 117.688 277.625 117.766 277.094 117.859C276.594 117.922 276.047 118.047 275.453 118.234C274.859 118.391 274.406 118.641 274.094 118.984C273.812 119.328 273.672 119.75 273.672 120.25C273.672 120.531 273.703 120.812 273.766 121.094C273.859 121.344 273.953 121.578 274.047 121.797C274.172 121.984 274.234 122.109 274.234 122.172L281.453 132.25L289.047 122.172C289.734 121.203 290.078 120.531 290.078 120.156C290.078 118.562 288.484 117.719 285.297 117.625C285.172 117.125 285.109 116.781 285.109 116.594C285.109 116.312 285.172 115.922 285.297 115.422C288.953 115.609 291.219 115.703 292.094 115.703C294.719 115.703 298.047 115.609 302.078 115.422C302.203 115.797 302.266 116.125 302.266 116.406C302.266 116.594 302.203 117 302.078 117.625C300.703 117.688 299.422 118 298.234 118.562C297.047 119.094 296.156 119.609 295.562 120.109C295 120.609 294.297 121.297 293.453 122.172L283.469 134.922L294.766 150.578C295.516 151.484 296.234 152.234 296.922 152.828C297.641 153.422 298.391 153.875 299.172 154.188C299.953 154.469 300.547 154.656 300.953 154.75C301.391 154.844 302.062 154.953 302.969 155.078C303.094 155.328 303.156 155.688 303.156 156.156C303.156 156.594 303.094 156.969 302.969 157.281C298.844 157.094 294.844 157 290.969 157C288.062 157 284.594 157.094 280.562 157.281C280.438 156.781 280.375 156.406 280.375 156.156C280.375 155.938 280.438 155.578 280.562 155.078C281.656 154.984 282.516 154.891 283.141 154.797C283.797 154.703 284.422 154.469 285.016 154.094C285.641 153.688 285.953 153.156 285.953 152.5C285.953 151.844 285.766 151.203 285.391 150.578L277.609 139.797L269.078 150.578C268.359 151.453 268 152.125 268 152.594C268 154.156 269.594 154.984 272.781 155.078C272.938 155.484 273.016 155.844 273.016 156.156C273.016 156.5 272.938 156.875 272.781 157.281C269.219 157.094 266.953 157 265.984 157C263.359 157 260.031 157.094 256 157.281C255.875 156.906 255.812 156.594 255.812 156.344C255.812 156.125 255.875 155.703 256 155.078C257.375 155.016 258.656 154.719 259.844 154.188C261.031 153.656 261.922 153.141 262.516 152.641C263.141 152.109 263.844 151.422 264.625 150.578L275.594 137.031L264.859 122.172C264.109 121.266 263.375 120.516 262.656 119.922C261.969 119.328 261.219 118.891 260.406 118.609C259.625 118.297 259.031 118.094 258.625 118C258.25 117.906 257.594 117.781 256.656 117.625C256.531 117.375 256.469 117.031 256.469 116.594C256.469 116.125 256.531 115.734 256.656 115.422Z"/>
</mask>
<path d="M2.66085 1.99999C74.5753 2.79092 72.9242 106.733 63 159L178 1.99999H2.66085Z" fill="#287094"/>
<path d="M58.6562 88.0938C65.6562 88.3438 71.0938 88.4688 74.9688 88.4688C78.8438 88.4688 84.2812 88.3438 91.2812 88.0938C91.4062 88.5938 91.4688 88.9375 91.4688 89.125C91.4688 89.4688 91.4062 89.8594 91.2812 90.2969C89.8438 90.4219 88.6719 90.5625 87.7656 90.7188C86.8906 90.8438 85.7969 91.0625 84.4844 91.375C83.2031 91.6875 82.2188 92.1406 81.5312 92.7344C80.8438 93.2969 80.4844 93.9844 80.4531 94.7969C80.0469 105.422 79.8438 115.312 79.8438 124.469C79.8438 131.156 80.0156 139.859 80.3594 150.578C80.3906 151.391 80.75 152.094 81.4375 152.688C82.125 153.25 83.1094 153.688 84.3906 154C85.7031 154.312 86.7969 154.547 87.6719 154.703C88.5781 154.828 89.75 154.953 91.1875 155.078C91.3125 155.453 91.375 155.875 91.375 156.344C91.375 156.594 91.3125 156.906 91.1875 157.281C85.875 157.094 80.4375 157 74.875 157C69.25 157 63.8125 157.094 58.5625 157.281C58.4375 156.906 58.375 156.594 58.375 156.344C58.375 155.812 58.4375 155.391 58.5625 155.078C59.5 154.984 60.25 154.906 60.8125 154.844C61.375 154.781 62.1406 154.672 63.1094 154.516C64.1094 154.359 64.9062 154.188 65.5 154C66.125 153.781 66.7656 153.516 67.4219 153.203C68.0781 152.891 68.5625 152.516 68.875 152.078C69.2188 151.641 69.3906 151.141 69.3906 150.578C69.7656 140.797 69.9531 130.938 69.9531 121C69.9531 110.875 69.7969 102.141 69.4844 94.7969C69.4531 93.9844 69.0938 93.2969 68.4062 92.7344C67.7188 92.1406 66.7188 91.6875 65.4062 91.375C64.125 91.0625 63.0312 90.8438 62.125 90.7188C61.25 90.5625 60.0938 90.4219 58.6562 90.2969C58.5312 89.7344 58.4688 89.3438 58.4688 89.125C58.4688 88.8125 58.5312 88.4688 58.6562 88.0938Z" fill="#023246"/>
<path d="M123.25 155.078C123.438 155.453 123.531 155.844 123.531 156.25C123.531 156.562 123.438 156.906 123.25 157.281C119.125 157.094 115.125 157 111.25 157C107.438 157 103.469 157.094 99.3438 157.281C99.2188 156.781 99.1562 156.438 99.1562 156.25C99.1562 156.094 99.2188 155.703 99.3438 155.078C100.375 154.953 101.219 154.828 101.875 154.703C102.531 154.547 103.344 154.312 104.312 154C105.281 153.688 106.016 153.25 106.516 152.688C107.016 152.094 107.281 151.391 107.312 150.578C107.438 147.484 107.5 143.734 107.5 139.328C107.5 137.859 107.484 135.359 107.453 131.828C107.422 128.297 107.406 125.203 107.406 122.547C105.625 121.453 102.625 120.812 98.4062 120.625C98.2812 120.125 98.2188 119.734 98.2188 119.453C98.2188 119.266 98.2812 118.922 98.4062 118.422C104.469 117.797 109.75 116.516 114.25 114.578C115.031 114.891 115.578 115.297 115.891 115.797V123.203C118.922 120.547 121.828 118.422 124.609 116.828C127.391 115.203 130.203 114.391 133.047 114.391C136.609 114.391 139.125 115.391 140.594 117.391C142.094 119.391 142.875 122.516 142.938 126.766L143.406 150.578C143.438 151.391 143.672 152.094 144.109 152.688C144.578 153.25 145.234 153.688 146.078 154C146.953 154.312 147.672 154.547 148.234 154.703C148.797 154.828 149.531 154.953 150.438 155.078C150.562 155.703 150.625 156.125 150.625 156.344C150.625 156.594 150.562 156.906 150.438 157.281C146.406 157.094 142.688 157 139.281 157C135.969 157 132.297 157.094 128.266 157.281C128.141 156.781 128.078 156.406 128.078 156.156C128.078 155.938 128.141 155.578 128.266 155.078C129.078 154.953 129.75 154.828 130.281 154.703C130.844 154.547 131.469 154.312 132.156 154C132.875 153.688 133.406 153.25 133.75 152.688C134.125 152.094 134.312 151.391 134.312 150.578L134.406 128.312C134.406 122.656 132.703 119.828 129.297 119.828C126.109 119.828 121.641 121.953 115.891 126.203C115.891 135.297 116.016 143.422 116.266 150.578C116.297 151.391 116.531 152.094 116.969 152.688C117.438 153.25 118.094 153.688 118.938 154C119.781 154.312 120.484 154.547 121.047 154.703C121.609 154.828 122.344 154.953 123.25 155.078Z" fill="#023246"/>
<path d="M180.531 89.5938C186.438 89.0312 191.719 87.75 196.375 85.75C197.188 86.0938 197.719 86.5156 197.969 87.0156C197.969 122.422 198.109 143.609 198.391 150.578C198.422 151.391 198.656 152.094 199.094 152.688C199.562 153.25 200.219 153.688 201.062 154C201.906 154.312 202.609 154.547 203.172 154.703C203.734 154.828 204.469 154.953 205.375 155.078C205.5 155.578 205.562 155.969 205.562 156.25C205.562 156.438 205.5 156.781 205.375 157.281C204.281 157.219 203.156 157.156 202 157.094C200.875 157.031 199.984 156.984 199.328 156.953C198.672 156.922 198.062 156.906 197.5 156.906C197.031 156.906 196.5 156.922 195.906 156.953C195.312 156.984 194.5 157.031 193.469 157.094C192.438 157.156 191.422 157.219 190.422 157.281C190.266 157.219 190.125 157.141 190 157.047C189.906 156.984 189.828 156.938 189.766 156.906C189.734 156.844 189.688 156.766 189.625 156.672C189.562 156.547 189.516 156.469 189.484 156.438C189.453 156.406 189.406 156.312 189.344 156.156C189.312 155.969 189.281 155.859 189.25 155.828C189.375 155.078 189.438 153.391 189.438 150.766C184.281 155.828 179.516 158.359 175.141 158.359C170.328 158.359 166.406 156.547 163.375 152.922C160.344 149.297 158.828 144.359 158.828 138.109C158.828 135.953 159.078 133.797 159.578 131.641C160.078 129.484 160.906 127.359 162.062 125.266C163.219 123.172 164.641 121.328 166.328 119.734C168.016 118.141 170.156 116.859 172.75 115.891C175.344 114.891 178.219 114.391 181.375 114.391C183.719 114.391 186.469 114.891 189.625 115.891C189.562 109.953 189.531 102.562 189.531 93.7188C187.75 92.6875 184.75 92.0469 180.531 91.7969C180.406 91.2969 180.344 90.9219 180.344 90.6719C180.344 90.4531 180.406 90.0938 180.531 89.5938ZM179.641 152.219C182.766 152.219 186.062 150.547 189.531 147.203C189.594 144.141 189.625 138.344 189.625 129.812V123.016C187.469 119.297 184.172 117.438 179.734 117.438C178.797 117.438 177.859 117.578 176.922 117.859C175.984 118.141 174.984 118.703 173.922 119.547C172.859 120.391 171.922 121.469 171.109 122.781C170.328 124.094 169.672 125.922 169.141 128.266C168.609 130.578 168.344 133.25 168.344 136.281C168.344 140.906 169.297 144.719 171.203 147.719C173.141 150.719 175.953 152.219 179.641 152.219Z" fill="#023246"/>
<path d="M249.25 132.156H223.703C223.578 134.031 223.516 135.688 223.516 137.125C223.609 141.781 224.969 145.516 227.594 148.328C230.219 151.109 233.734 152.5 238.141 152.5C239.328 152.5 240.438 152.375 241.469 152.125C242.5 151.844 243.344 151.531 244 151.188C244.688 150.844 245.391 150.344 246.109 149.688C246.828 149.031 247.344 148.516 247.656 148.141C248 147.734 248.453 147.141 249.016 146.359C249.578 145.547 249.953 145.031 250.141 144.812C250.891 144.969 251.5 145.312 251.969 145.844C250.406 150.031 247.984 153.172 244.703 155.266C241.422 157.328 237.859 158.359 234.016 158.359C232.109 158.359 230.25 158.109 228.438 157.609C226.656 157.141 224.922 156.359 223.234 155.266C221.547 154.172 220.078 152.828 218.828 151.234C217.578 149.609 216.578 147.594 215.828 145.188C215.078 142.75 214.703 140.062 214.703 137.125C214.703 130.531 216.719 125.094 220.75 120.812C224.781 116.531 229.734 114.391 235.609 114.391C238.203 114.391 240.453 114.766 242.359 115.516C244.297 116.234 245.797 117.219 246.859 118.469C247.953 119.719 248.75 121.094 249.25 122.594C249.781 124.062 250.047 125.641 250.047 127.328C250.047 128.891 249.781 130.5 249.25 132.156ZM234.484 117.438C232.328 117.438 230.281 118.391 228.344 120.297C226.438 122.203 225.062 125.094 224.219 128.969H241.094C241.406 127.781 241.562 126.75 241.562 125.875C241.562 123.438 241 121.422 239.875 119.828C238.75 118.234 236.953 117.438 234.484 117.438Z" fill="#023246"/>
<path d="M256.656 115.422C260.781 115.609 264.781 115.703 268.656 115.703C271.562 115.703 275.031 115.609 279.062 115.422C279.188 115.922 279.25 116.312 279.25 116.594C279.25 116.781 279.188 117.125 279.062 117.625C278.281 117.688 277.625 117.766 277.094 117.859C276.594 117.922 276.047 118.047 275.453 118.234C274.859 118.391 274.406 118.641 274.094 118.984C273.812 119.328 273.672 119.75 273.672 120.25C273.672 120.531 273.703 120.812 273.766 121.094C273.859 121.344 273.953 121.578 274.047 121.797C274.172 121.984 274.234 122.109 274.234 122.172L281.453 132.25L289.047 122.172C289.734 121.203 290.078 120.531 290.078 120.156C290.078 118.562 288.484 117.719 285.297 117.625C285.172 117.125 285.109 116.781 285.109 116.594C285.109 116.312 285.172 115.922 285.297 115.422C288.953 115.609 291.219 115.703 292.094 115.703C294.719 115.703 298.047 115.609 302.078 115.422C302.203 115.797 302.266 116.125 302.266 116.406C302.266 116.594 302.203 117 302.078 117.625C300.703 117.688 299.422 118 298.234 118.562C297.047 119.094 296.156 119.609 295.562 120.109C295 120.609 294.297 121.297 293.453 122.172L283.469 134.922L294.766 150.578C295.516 151.484 296.234 152.234 296.922 152.828C297.641 153.422 298.391 153.875 299.172 154.188C299.953 154.469 300.547 154.656 300.953 154.75C301.391 154.844 302.062 154.953 302.969 155.078C303.094 155.328 303.156 155.688 303.156 156.156C303.156 156.594 303.094 156.969 302.969 157.281C298.844 157.094 294.844 157 290.969 157C288.062 157 284.594 157.094 280.562 157.281C280.438 156.781 280.375 156.406 280.375 156.156C280.375 155.938 280.438 155.578 280.562 155.078C281.656 154.984 282.516 154.891 283.141 154.797C283.797 154.703 284.422 154.469 285.016 154.094C285.641 153.688 285.953 153.156 285.953 152.5C285.953 151.844 285.766 151.203 285.391 150.578L277.609 139.797L269.078 150.578C268.359 151.453 268 152.125 268 152.594C268 154.156 269.594 154.984 272.781 155.078C272.938 155.484 273.016 155.844 273.016 156.156C273.016 156.5 272.938 156.875 272.781 157.281C269.219 157.094 266.953 157 265.984 157C263.359 157 260.031 157.094 256 157.281C255.875 156.906 255.812 156.594 255.812 156.344C255.812 156.125 255.875 155.703 256 155.078C257.375 155.016 258.656 154.719 259.844 154.188C261.031 153.656 261.922 153.141 262.516 152.641C263.141 152.109 263.844 151.422 264.625 150.578L275.594 137.031L264.859 122.172C264.109 121.266 263.375 120.516 262.656 119.922C261.969 119.328 261.219 118.891 260.406 118.609C259.625 118.297 259.031 118.094 258.625 118C258.25 117.906 257.594 117.781 256.656 117.625C256.531 117.375 256.469 117.031 256.469 116.594C256.469 116.125 256.531 115.734 256.656 115.422Z" fill="#023246"/>
<path d="M1 1.99999L0.989131 1.00005L1 2.99999V1.99999ZM2.66085 1.99999V2.99999L2.67185 1.00005L2.66085 1.99999ZM2.66085 0.999993H1V2.99999H2.66085V0.999993ZM1.01087 2.99993C1.56158 2.99395 2.1079 2.99397 2.64986 2.99993L2.67185 1.00005C2.11517 0.993931 1.55428 0.993909 0.989131 1.00005L1.01087 2.99993ZM63 159L61.0351 158.627L64.6135 160.182L63 159ZM178 1.99999L179.613 3.18183L181.944 -7.39098e-06H178V1.99999ZM2.66085 1.99999V-7.39098e-06L2.63886 3.99987L2.66085 1.99999ZM58.6562 88.0938L58.7276 86.095L57.2321 86.0416L56.7589 87.4613L58.6562 88.0938ZM91.2812 88.0938L93.2215 87.6087L92.8287 86.0372L91.2099 86.095L91.2812 88.0938ZM91.2812 90.2969L91.4545 92.2894L92.8261 92.1701L93.2043 90.8463L91.2812 90.2969ZM87.7656 90.7188L88.0485 92.6986L88.077 92.6946L88.1054 92.6897L87.7656 90.7188ZM84.4844 91.375L84.0211 89.4294L84.0105 89.432L84.4844 91.375ZM81.5312 92.7344L82.7977 94.2823L82.8183 94.2654L82.8385 94.248L81.5312 92.7344ZM80.4531 94.7969L78.4546 94.72L78.4546 94.7205L80.4531 94.7969ZM80.3594 150.578L78.3604 150.642L78.3609 150.655L80.3594 150.578ZM81.4375 152.688L80.1303 154.201L80.1504 154.219L80.171 154.235L81.4375 152.688ZM84.3906 154L83.9167 155.943L83.9274 155.946L84.3906 154ZM87.6719 154.703L87.3203 156.672L87.3593 156.679L87.3986 156.684L87.6719 154.703ZM91.1875 155.078L93.0849 154.446L92.6695 153.199L91.3608 153.086L91.1875 155.078ZM91.1875 157.281L91.117 159.28L92.6118 159.333L93.0849 157.914L91.1875 157.281ZM58.5625 157.281L56.6651 157.914L57.1384 159.333L58.6339 159.28L58.5625 157.281ZM58.5625 155.078L58.3635 153.088L57.1562 153.209L56.7055 154.335L58.5625 155.078ZM63.1094 154.516L62.8006 152.54L62.7909 152.541L63.1094 154.516ZM65.5 154L66.1023 155.907L66.1316 155.898L66.1607 155.888L65.5 154ZM68.875 152.078L67.3024 150.842L67.2741 150.878L67.2475 150.916L68.875 152.078ZM69.3906 150.578L67.3921 150.502L67.3906 150.54V150.578H69.3906ZM69.4844 94.7969L67.4858 94.8737L67.4862 94.8819L69.4844 94.7969ZM68.4062 92.7344L67.099 94.248L67.1192 94.2654L67.1398 94.2823L68.4062 92.7344ZM65.4062 91.375L64.9323 93.3181L64.943 93.3206L65.4062 91.375ZM62.125 90.7188L61.7734 92.6876L61.8125 92.6946L61.8517 92.7L62.125 90.7188ZM58.6562 90.2969L56.7039 90.7307L57.022 92.1623L58.483 92.2894L58.6562 90.2969ZM123.25 155.078L125.039 154.184L124.567 153.241L123.523 153.097L123.25 155.078ZM123.25 157.281L123.159 159.279L124.458 159.338L125.039 158.176L123.25 157.281ZM99.3438 157.281L97.4035 157.766L97.8003 159.353L99.4346 159.279L99.3438 157.281ZM99.3438 155.078L99.1031 153.093L97.6664 153.267L97.3826 154.686L99.3438 155.078ZM101.875 154.703L102.249 156.668L102.294 156.659L102.338 156.649L101.875 154.703ZM106.516 152.688L108.01 154.016L108.028 153.996L108.045 153.976L106.516 152.688ZM107.312 150.578L105.314 150.497L105.314 150.501L107.312 150.578ZM107.406 122.547H109.406V121.428L108.453 120.843L107.406 122.547ZM98.4062 120.625L96.466 121.11L96.8277 122.557L98.3175 122.623L98.4062 120.625ZM98.4062 118.422L98.2011 116.432L96.8061 116.576L96.466 117.937L98.4062 118.422ZM114.25 114.578L114.993 112.721L114.222 112.413L113.459 112.741L114.25 114.578ZM115.891 115.797H117.891V115.223L117.587 114.737L115.891 115.797ZM115.891 123.203H113.891V127.615L117.209 124.707L115.891 123.203ZM124.609 116.828L125.604 118.563L125.611 118.559L125.618 118.555L124.609 116.828ZM140.594 117.391L138.982 118.574L138.988 118.583L138.994 118.591L140.594 117.391ZM142.938 126.766L140.938 126.795L140.938 126.805L142.938 126.766ZM143.406 150.578L141.407 150.617L141.407 150.636L141.408 150.655L143.406 150.578ZM144.109 152.688L142.499 153.874L142.535 153.922L142.573 153.968L144.109 152.688ZM146.078 154L145.383 155.876L145.394 155.88L145.405 155.883L146.078 154ZM148.234 154.703L147.699 156.63L147.749 156.644L147.801 156.656L148.234 154.703ZM150.438 155.078L152.399 154.686L152.12 153.291L150.711 153.097L150.438 155.078ZM150.438 157.281L150.345 159.279L151.856 159.349L152.335 157.914L150.438 157.281ZM128.266 157.281L126.325 157.766L126.723 159.355L128.359 159.279L128.266 157.281ZM128.266 155.078L127.962 153.101L126.648 153.303L126.325 154.593L128.266 155.078ZM130.281 154.703L130.739 156.65L130.778 156.641L130.817 156.63L130.281 154.703ZM132.156 154L131.359 152.166L131.344 152.172L131.329 152.179L132.156 154ZM133.75 152.688L132.059 151.62L132.051 151.632L132.043 151.645L133.75 152.688ZM134.312 150.578L132.312 150.57V150.578H134.312ZM134.406 128.312L136.406 128.321V128.312H134.406ZM115.891 126.203L114.702 124.595L113.891 125.194V126.203H115.891ZM116.266 150.578L114.267 150.648L114.267 150.655L116.266 150.578ZM116.969 152.688L115.359 153.874L115.394 153.922L115.432 153.968L116.969 152.688ZM121.047 154.703L120.512 156.63L120.562 156.644L120.613 156.656L121.047 154.703ZM180.531 89.5938L180.342 87.6028L178.934 87.7368L178.591 89.1087L180.531 89.5938ZM196.375 85.75L197.154 83.9081L196.369 83.5759L195.586 83.9123L196.375 85.75ZM197.969 87.0156H199.969V86.5435L199.758 86.1212L197.969 87.0156ZM198.391 150.578L200.389 150.501L200.389 150.497L198.391 150.578ZM199.094 152.688L197.484 153.874L197.519 153.922L197.557 153.968L199.094 152.688ZM203.172 154.703L202.637 156.63L202.687 156.644L202.738 156.656L203.172 154.703ZM205.375 155.078L207.315 154.593L206.987 153.282L205.648 153.097L205.375 155.078ZM205.375 157.281L205.261 159.278L206.914 159.372L207.315 157.766L205.375 157.281ZM202 157.094L201.889 159.091L201.892 159.091L202 157.094ZM190.422 157.281L189.679 159.138L190.097 159.305L190.547 159.277L190.422 157.281ZM190 157.047L191.2 155.447L191.156 155.414L191.109 155.383L190 157.047ZM189.766 156.906L187.977 157.801L188.275 158.397L188.871 158.695L189.766 156.906ZM189.625 156.672L187.836 157.566L187.892 157.678L187.961 157.781L189.625 156.672ZM189.344 156.156L187.371 156.485L187.407 156.698L187.487 156.899L189.344 156.156ZM189.25 155.828L187.277 155.499L187.108 156.515L187.836 157.242L189.25 155.828ZM189.438 150.766H191.438V145.999L188.036 149.339L189.438 150.766ZM172.75 115.891L173.45 117.764L173.46 117.761L173.469 117.757L172.75 115.891ZM189.625 115.891L189.021 117.797L191.654 118.631L191.625 115.87L189.625 115.891ZM189.531 93.7188H191.531V92.5656L190.533 91.9879L189.531 93.7188ZM180.531 91.7969L178.591 92.2819L178.947 93.7065L180.413 93.7934L180.531 91.7969ZM189.531 147.203L190.919 148.643L191.514 148.07L191.531 147.244L189.531 147.203ZM189.625 123.016H191.625V122.478L191.355 122.012L189.625 123.016ZM171.109 122.781L169.409 121.729L169.4 121.743L169.391 121.758L171.109 122.781ZM169.141 128.266L171.09 128.713L171.091 128.708L169.141 128.266ZM171.203 147.719L169.515 148.791L169.519 148.798L169.523 148.804L171.203 147.719ZM249.25 132.156V134.156H250.709L251.154 132.767L249.25 132.156ZM223.703 132.156V130.156H221.832L221.708 132.023L223.703 132.156ZM223.516 137.125H221.516V137.145L221.516 137.165L223.516 137.125ZM227.594 148.328L226.132 149.693L226.139 149.701L227.594 148.328ZM241.469 152.125L241.94 154.069L241.968 154.062L241.995 154.055L241.469 152.125ZM244 151.188L243.106 149.399L243.089 149.407L243.072 149.416L244 151.188ZM247.656 148.141L246.129 146.849L246.125 146.854L246.12 146.86L247.656 148.141ZM249.016 146.359L250.639 147.528L250.649 147.513L250.66 147.498L249.016 146.359ZM250.141 144.812L250.549 142.855L249.391 142.613L248.622 143.511L250.141 144.812ZM251.969 145.844L253.843 146.543L254.262 145.42L253.468 144.521L251.969 145.844ZM244.703 155.266L245.767 156.959L245.779 156.952L244.703 155.266ZM228.438 157.609L228.969 155.681L228.958 155.678L228.946 155.675L228.438 157.609ZM218.828 151.234L217.243 152.454L217.249 152.461L217.254 152.469L218.828 151.234ZM215.828 145.188L213.917 145.776L213.919 145.783L215.828 145.188ZM242.359 115.516L241.627 117.377L241.645 117.384L241.664 117.391L242.359 115.516ZM246.859 118.469L245.335 119.764L245.345 119.775L245.354 119.786L246.859 118.469ZM249.25 122.594L247.353 123.226L247.361 123.25L247.369 123.274L249.25 122.594ZM228.344 120.297L226.941 118.871L226.935 118.877L226.93 118.883L228.344 120.297ZM224.219 128.969L222.265 128.543L221.736 130.969H224.219V128.969ZM241.094 128.969V130.969H242.636L243.028 129.478L241.094 128.969ZM256.656 115.422L256.747 113.424L255.327 113.359L254.799 114.679L256.656 115.422ZM279.062 115.422L281.003 114.937L280.606 113.348L278.97 113.424L279.062 115.422ZM279.062 117.625L279.222 119.619L280.654 119.504L281.003 118.11L279.062 117.625ZM277.094 117.859L277.342 119.844L277.392 119.838L277.441 119.829L277.094 117.859ZM275.453 118.234L275.962 120.169L276.009 120.156L276.055 120.142L275.453 118.234ZM274.094 118.984L272.614 117.639L272.579 117.678L272.546 117.718L274.094 118.984ZM273.766 121.094L271.813 121.528L271.844 121.665L271.893 121.796L273.766 121.094ZM274.047 121.797L272.209 122.585L272.281 122.753L272.383 122.906L274.047 121.797ZM274.234 122.172H272.234V122.814L272.608 123.336L274.234 122.172ZM281.453 132.25L279.827 133.415L281.412 135.628L283.05 133.454L281.453 132.25ZM289.047 122.172L290.644 123.375L290.661 123.353L290.678 123.329L289.047 122.172ZM285.297 117.625L283.357 118.11L283.724 119.58L285.238 119.624L285.297 117.625ZM285.297 115.422L285.399 113.424L283.756 113.34L283.357 114.937L285.297 115.422ZM302.078 115.422L303.975 114.789L303.497 113.354L301.985 113.424L302.078 115.422ZM302.078 117.625L302.169 119.623L303.732 119.552L304.039 118.017L302.078 117.625ZM298.234 118.562L299.051 120.388L299.071 120.379L299.091 120.37L298.234 118.562ZM295.562 120.109L294.274 118.58L294.254 118.597L294.234 118.615L295.562 120.109ZM293.453 122.172L292.013 120.784L291.942 120.858L291.878 120.939L293.453 122.172ZM283.469 134.922L281.894 133.689L280.967 134.873L281.847 136.092L283.469 134.922ZM294.766 150.578L293.144 151.748L293.183 151.802L293.225 151.853L294.766 150.578ZM296.922 152.828L295.615 154.342L295.631 154.356L295.648 154.37L296.922 152.828ZM299.172 154.188L298.429 156.044L298.462 156.057L298.494 156.069L299.172 154.188ZM300.953 154.75L300.503 156.699L300.519 156.702L300.534 156.706L300.953 154.75ZM302.969 155.078L304.758 154.184L304.286 153.241L303.242 153.097L302.969 155.078ZM302.969 157.281L302.878 159.279L304.298 159.344L304.826 158.024L302.969 157.281ZM280.562 157.281L278.622 157.766L279.019 159.355L280.655 159.279L280.562 157.281ZM280.562 155.078L280.392 153.085L278.969 153.207L278.622 154.593L280.562 155.078ZM283.141 154.797L282.858 152.817L282.844 152.819L283.141 154.797ZM285.016 154.094L286.084 155.785L286.095 155.778L286.106 155.771L285.016 154.094ZM285.391 150.578L287.106 149.549L287.062 149.476L287.012 149.408L285.391 150.578ZM277.609 139.797L279.231 138.626L277.683 136.481L276.041 138.556L277.609 139.797ZM269.078 150.578L270.624 151.848L270.635 151.833L270.646 151.819L269.078 150.578ZM272.781 155.078L274.648 154.36L274.17 153.118L272.84 153.079L272.781 155.078ZM272.781 157.281L272.676 159.278L274.127 159.355L274.648 157.999L272.781 157.281ZM256 157.281L254.103 157.914L254.581 159.349L256.093 159.279L256 157.281ZM256 155.078L255.909 153.08L254.346 153.151L254.039 154.686L256 155.078ZM262.516 152.641L263.804 154.17L263.811 154.165L262.516 152.641ZM264.625 150.578L266.093 151.937L266.138 151.888L266.179 151.837L264.625 150.578ZM275.594 137.031L277.148 138.29L278.111 137.101L277.215 135.86L275.594 137.031ZM264.859 122.172L266.481 121.001L266.442 120.947L266.4 120.897L264.859 122.172ZM262.656 119.922L261.349 121.436L261.366 121.45L261.382 121.464L262.656 119.922ZM260.406 118.609L259.663 120.466L259.707 120.484L259.752 120.499L260.406 118.609ZM258.625 118L258.14 119.94L258.158 119.945L258.175 119.949L258.625 118ZM256.656 117.625L254.867 118.519L255.323 119.43L256.327 119.598L256.656 117.625ZM64.6135 160.182L179.613 3.18183L176.387 0.818157L61.3865 157.818L64.6135 160.182ZM2.63886 3.99987C20.0724 4.19161 32.9257 10.6073 42.3504 20.8678C51.8305 31.1886 57.9435 45.5167 61.5686 61.6352C68.8222 93.8863 65.9695 132.639 61.0351 158.627L64.9649 159.373C69.9547 133.094 72.8896 93.7417 65.4712 60.7575C61.7603 44.2582 55.4223 29.1859 45.2963 18.1619C35.1148 7.07749 21.2065 0.20384 2.68285 0.000113487L2.63886 3.99987ZM178 -7.39098e-06H2.66085V3.99999H178V-7.39098e-06ZM58.5849 90.0925C65.593 90.3428 71.0582 90.4688 74.9688 90.4688V86.4688C71.1293 86.4688 65.7195 86.3447 58.7276 86.095L58.5849 90.0925ZM74.9688 90.4688C78.8793 90.4688 84.3445 90.3428 91.3526 90.0925L91.2099 86.095C84.218 86.3447 78.8082 86.4688 74.9688 86.4688V90.4688ZM89.341 88.5788C89.3974 88.8044 89.4333 88.97 89.4541 89.0843C89.4644 89.1408 89.469 89.1742 89.4707 89.1888C89.4729 89.2073 89.4688 89.1813 89.4688 89.125H93.4688C93.4688 88.6558 93.3401 88.0831 93.2215 87.6087L89.341 88.5788ZM89.4688 89.125C89.4688 89.2341 89.4476 89.4346 89.3582 89.7474L93.2043 90.8463C93.3649 90.2841 93.4688 89.7034 93.4688 89.125H89.4688ZM91.108 88.3044C89.6422 88.4319 88.409 88.5783 87.4258 88.7478L88.1054 92.6897C88.9347 92.5467 90.0453 92.4119 91.4545 92.2894L91.108 88.3044ZM87.4828 88.7389C86.5245 88.8757 85.3658 89.1092 84.0211 89.4294L84.9476 93.3206C86.228 93.0158 87.2568 92.8118 88.0485 92.6986L87.4828 88.7389ZM84.0105 89.432C82.5505 89.788 81.235 90.3476 80.224 91.2207L82.8385 94.248C83.2025 93.9336 83.8558 93.587 84.9583 93.318L84.0105 89.432ZM80.2648 91.1865C79.1799 92.0741 78.5101 93.278 78.4546 94.72L82.4516 94.8737C82.4587 94.6907 82.5076 94.5196 82.7977 94.2823L80.2648 91.1865ZM78.4546 94.7205C78.0475 105.367 77.8438 115.283 77.8438 124.469H81.8438C81.8438 115.342 82.0462 105.477 82.4517 94.8733L78.4546 94.7205ZM77.8438 124.469C77.8438 131.186 78.0163 139.913 78.3604 150.642L82.3583 150.514C82.0149 139.806 81.8438 131.126 81.8438 124.469H77.8438ZM78.3609 150.655C78.416 152.089 79.0775 153.292 80.1303 154.201L82.7447 151.174C82.4225 150.896 82.3652 150.692 82.3579 150.501L78.3609 150.655ZM80.171 154.235C81.1744 155.056 82.4741 155.591 83.9167 155.943L84.8645 152.057C83.7447 151.784 83.0756 151.444 82.704 151.14L80.171 154.235ZM83.9274 155.946C85.2601 156.263 86.394 156.507 87.3203 156.672L88.0235 152.734C87.1997 152.587 86.1462 152.362 84.8539 152.054L83.9274 155.946ZM87.3986 156.684C88.3513 156.816 89.56 156.944 91.0142 157.071L91.3608 153.086C89.94 152.962 88.8049 152.84 87.9452 152.722L87.3986 156.684ZM89.2901 155.711C89.3359 155.848 89.375 156.051 89.375 156.344H93.375C93.375 155.699 93.2891 155.058 93.0849 154.446L89.2901 155.711ZM89.375 156.344C89.375 156.307 89.3791 156.313 89.367 156.373C89.3553 156.432 89.3324 156.522 89.2901 156.649L93.0849 157.914C93.2431 157.439 93.375 156.896 93.375 156.344H89.375ZM91.258 155.283C85.921 155.094 80.4599 155 74.875 155V159C80.4151 159 85.829 159.093 91.117 159.28L91.258 155.283ZM74.875 155C69.2279 155 63.7665 155.094 58.4911 155.283L58.6339 159.28C63.8585 159.093 69.2721 159 74.875 159V155ZM60.4599 156.649C60.4176 156.522 60.3947 156.432 60.383 156.373C60.371 156.313 60.375 156.307 60.375 156.344H56.375C56.375 156.896 56.5069 157.439 56.6651 157.914L60.4599 156.649ZM60.375 156.344C60.375 156.153 60.3864 156.016 60.4003 155.922C60.4145 155.826 60.4278 155.8 60.4195 155.821L56.7055 154.335C56.4474 154.981 56.375 155.688 56.375 156.344H60.375ZM58.7615 157.068C59.7022 156.974 60.4604 156.895 61.0334 156.832L60.5916 152.856C60.0396 152.917 59.2978 152.995 58.3635 153.088L58.7615 157.068ZM61.0334 156.832C61.6437 156.764 62.4464 156.648 63.4278 156.49L62.7909 152.541C61.8348 152.695 61.1063 152.799 60.5916 152.856L61.0334 156.832ZM63.4181 156.492C64.4643 156.328 65.3721 156.138 66.1023 155.907L64.8977 152.093C64.4404 152.237 63.7544 152.391 62.8006 152.54L63.4181 156.492ZM66.1607 155.888C66.8597 155.643 67.5668 155.349 68.2817 155.009L66.562 151.397C65.9644 151.682 65.3903 151.919 64.8393 152.112L66.1607 155.888ZM68.2817 155.009C69.1409 154.6 69.9355 154.034 70.5025 153.241L67.2475 150.916C67.1895 150.997 67.0153 151.182 66.562 151.397L68.2817 155.009ZM70.4476 153.314C71.0715 152.52 71.3906 151.583 71.3906 150.578H67.3906C67.3906 150.698 67.366 150.762 67.3024 150.842L70.4476 153.314ZM71.3892 150.655C71.7652 140.848 71.9531 130.963 71.9531 121H67.9531C67.9531 130.912 67.7661 140.746 67.3921 150.502L71.3892 150.655ZM71.9531 121C71.9531 110.856 71.7966 102.092 71.4826 94.7118L67.4862 94.8819C67.7971 102.189 67.9531 110.894 67.9531 121H71.9531ZM71.4829 94.72C71.4274 93.278 70.7576 92.0741 69.6727 91.1865L67.1398 94.2823C67.4299 94.5196 67.4788 94.6907 67.4859 94.8737L71.4829 94.72ZM69.7135 91.2207C68.6941 90.3404 67.3544 89.7829 65.8695 89.4294L64.943 93.3206C66.0831 93.5921 66.7434 93.9409 67.099 94.248L69.7135 91.2207ZM65.8802 89.432C64.5589 89.1097 63.3943 88.8749 62.3983 88.7375L61.8517 92.7C62.6682 92.8126 63.6911 93.0153 64.9323 93.318L65.8802 89.432ZM62.4766 88.7499C61.5178 88.5787 60.2949 88.4318 58.8295 88.3044L58.483 92.2894C59.8926 92.4119 60.9822 92.5463 61.7734 92.6876L62.4766 88.7499ZM60.6086 89.863C60.5513 89.6049 60.5133 89.4085 60.4905 89.2661C60.4649 89.1061 60.4688 89.0762 60.4688 89.125H56.4688C56.4688 89.5922 56.5824 90.1839 56.7039 90.7307L60.6086 89.863ZM60.4688 89.125C60.4688 89.0757 60.4794 88.9488 60.5536 88.7262L56.7589 87.4613C56.5831 87.9887 56.4688 88.5493 56.4688 89.125H60.4688ZM121.461 155.973C121.514 156.079 121.531 156.164 121.531 156.25H125.531C125.531 155.523 125.361 154.827 125.039 154.184L121.461 155.973ZM121.531 156.25C121.531 156.206 121.538 156.192 121.531 156.216C121.525 156.241 121.506 156.297 121.461 156.387L125.039 158.176C125.32 157.613 125.531 156.96 125.531 156.25H121.531ZM123.341 155.283C119.188 155.095 115.157 155 111.25 155V159C115.093 159 119.062 159.093 123.159 159.279L123.341 155.283ZM111.25 155C107.405 155 103.406 155.095 99.2529 155.283L99.4346 159.279C103.532 159.093 107.47 159 111.25 159V155ZM101.284 156.796C101.228 156.571 101.192 156.405 101.171 156.291C101.161 156.234 101.156 156.201 101.154 156.186C101.152 156.168 101.156 156.194 101.156 156.25H97.1562C97.1562 156.719 97.2849 157.292 97.4035 157.766L101.284 156.796ZM101.156 156.25C101.156 156.323 101.15 156.356 101.155 156.316C101.158 156.287 101.165 156.236 101.178 156.156C101.203 155.997 101.245 155.771 101.305 155.47L97.3826 154.686C97.3177 155.01 97.2653 155.292 97.2282 155.524C97.198 155.713 97.1562 155.994 97.1562 156.25H101.156ZM99.5844 157.064C100.639 156.936 101.532 156.805 102.249 156.668L101.501 152.738C100.906 152.852 100.111 152.97 99.1031 153.093L99.5844 157.064ZM102.338 156.649C103.064 156.476 103.93 156.225 104.927 155.903L103.698 152.097C102.757 152.4 101.999 152.618 101.412 152.758L102.338 156.649ZM104.927 155.903C106.12 155.519 107.204 154.923 108.01 154.016L105.021 151.359C104.827 151.577 104.443 151.856 103.698 152.097L104.927 155.903ZM108.045 153.976C108.846 153.025 109.264 151.889 109.311 150.655L105.314 150.501C105.299 150.892 105.185 151.163 104.986 151.399L108.045 153.976ZM109.311 150.659C109.437 147.53 109.5 143.751 109.5 139.328H105.5C105.5 143.718 105.438 147.439 105.314 150.497L109.311 150.659ZM109.5 139.328C109.5 137.85 109.484 135.342 109.453 131.81L105.453 131.846C105.484 135.377 105.5 137.869 105.5 139.328H109.5ZM109.453 131.81C109.422 128.283 109.406 125.196 109.406 122.547H105.406C105.406 125.211 105.422 128.31 105.453 131.846L109.453 131.81ZM108.453 120.843C106.212 119.467 102.773 118.817 98.495 118.627L98.3175 122.623C102.477 122.808 105.038 123.439 106.36 124.251L108.453 120.843ZM100.347 120.14C100.294 119.93 100.26 119.766 100.241 119.641C100.231 119.58 100.225 119.533 100.222 119.499C100.219 119.465 100.219 119.451 100.219 119.453H96.2188C96.2188 119.981 96.3283 120.56 96.466 121.11L100.347 120.14ZM100.219 119.453C100.219 119.509 100.215 119.535 100.217 119.517C100.218 119.502 100.223 119.469 100.233 119.412C100.254 119.298 100.29 119.133 100.347 118.907L96.466 117.937C96.3474 118.411 96.2188 118.984 96.2188 119.453H100.219ZM98.6114 120.411C104.829 119.77 110.316 118.45 115.041 116.415L113.459 112.741C109.184 114.582 104.109 115.823 98.2011 116.432L98.6114 120.411ZM113.507 116.435C114.057 116.655 114.185 116.842 114.195 116.857L117.587 114.737C116.971 113.752 116.006 113.126 114.993 112.721L113.507 116.435ZM113.891 115.797V123.203H117.891V115.797H113.891ZM117.209 124.707C120.164 122.117 122.963 120.077 125.604 118.563L123.615 115.093C120.693 116.767 117.679 118.976 114.573 121.699L117.209 124.707ZM125.618 118.555C128.135 117.085 130.603 116.391 133.047 116.391V112.391C129.803 112.391 126.646 113.322 123.6 115.101L125.618 118.555ZM133.047 116.391C136.266 116.391 138.035 117.285 138.982 118.574L142.206 116.207C140.215 113.496 136.952 112.391 133.047 112.391V116.391ZM138.994 118.591C140.117 120.088 140.878 122.702 140.938 126.795L144.937 126.736C144.872 122.33 144.07 118.693 142.194 116.191L138.994 118.591ZM140.938 126.805L141.407 150.617L145.406 150.539L144.937 126.726L140.938 126.805ZM141.408 150.655C141.453 151.825 141.8 152.925 142.499 153.874L145.719 151.501C145.544 151.263 145.422 150.956 145.405 150.501L141.408 150.655ZM142.573 153.968C143.311 154.854 144.286 155.469 145.383 155.876L146.773 152.124C146.182 151.906 145.845 151.646 145.646 151.407L142.573 153.968ZM145.405 155.883C146.303 156.204 147.072 156.456 147.699 156.63L148.77 152.776C148.272 152.638 147.604 152.421 146.751 152.117L145.405 155.883ZM147.801 156.656C148.438 156.797 149.231 156.931 150.164 157.059L150.711 153.097C149.831 152.976 149.156 152.859 148.668 152.751L147.801 156.656ZM148.476 155.47C148.535 155.764 148.575 155.99 148.6 156.156C148.627 156.343 148.625 156.386 148.625 156.344H152.625C152.625 155.895 152.518 155.282 152.399 154.686L148.476 155.47ZM148.625 156.344C148.625 156.307 148.629 156.313 148.617 156.373C148.605 156.432 148.582 156.522 148.54 156.649L152.335 157.914C152.493 157.439 152.625 156.896 152.625 156.344H148.625ZM150.53 155.283C146.474 155.095 142.724 155 139.281 155V159C142.651 159 146.339 159.093 150.345 159.279L150.53 155.283ZM139.281 155C135.932 155 132.229 155.095 128.173 155.283L128.359 159.279C132.365 159.093 136.006 159 139.281 159V155ZM130.206 156.796C130.152 156.581 130.118 156.417 130.098 156.296C130.076 156.168 130.078 156.13 130.078 156.156H126.078C126.078 156.665 126.193 157.238 126.325 157.766L130.206 156.796ZM130.078 156.156C130.078 156.212 130.073 156.196 130.095 156.065C130.116 155.948 130.151 155.784 130.206 155.563L126.325 154.593C126.2 155.096 126.078 155.667 126.078 156.156H130.078ZM128.57 157.055C129.411 156.925 130.139 156.791 130.739 156.65L129.823 152.756C129.361 152.865 128.745 152.981 127.962 153.101L128.57 157.055ZM130.817 156.63C131.503 156.439 132.228 156.164 132.984 155.821L131.329 152.179C130.71 152.461 130.184 152.654 129.746 152.776L130.817 156.63ZM132.954 155.834C133.977 155.389 134.86 154.706 135.457 153.73L132.043 151.645C131.952 151.794 131.773 151.986 131.359 152.166L132.954 155.834ZM135.441 153.755C136.048 152.794 136.312 151.708 136.312 150.578H132.312C132.312 151.073 132.202 151.393 132.059 151.62L135.441 153.755ZM136.312 150.587L136.406 128.321L132.406 128.304L132.313 150.57L136.312 150.587ZM136.406 128.312C136.406 125.349 135.972 122.793 134.842 120.917C133.615 118.88 131.674 117.828 129.297 117.828V121.828C130.326 121.828 130.94 122.191 131.416 122.981C131.989 123.934 132.406 125.62 132.406 128.312H136.406ZM129.297 117.828C127.287 117.828 125.065 118.489 122.696 119.616C120.307 120.752 117.639 122.424 114.702 124.595L117.079 127.811C119.892 125.732 122.334 124.217 124.414 123.228C126.513 122.23 128.119 121.828 129.297 121.828V117.828ZM113.891 126.203C113.891 135.314 114.016 143.463 114.267 150.648L118.264 150.508C118.015 143.381 117.891 135.279 117.891 126.203H113.891ZM114.267 150.655C114.312 151.825 114.659 152.925 115.359 153.874L118.579 151.501C118.403 151.263 118.282 150.956 118.264 150.501L114.267 150.655ZM115.432 153.968C116.171 154.854 117.146 155.469 118.243 155.876L119.632 152.124C119.042 151.906 118.704 151.646 118.505 151.407L115.432 153.968ZM118.243 155.876C119.114 156.198 119.875 156.453 120.512 156.63L121.582 152.776C121.094 152.64 120.448 152.427 119.632 152.124L118.243 155.876ZM120.613 156.656C121.25 156.797 122.044 156.931 122.977 157.059L123.523 153.097C122.644 152.976 121.969 152.859 121.481 152.751L120.613 156.656ZM180.721 91.5847C186.799 91.0058 192.288 89.6822 197.164 87.5877L195.586 83.9123C191.15 85.8178 186.076 87.0567 180.342 87.6028L180.721 91.5847ZM195.596 87.5919C195.882 87.7132 196.05 87.8198 196.139 87.8904C196.224 87.9579 196.21 87.9707 196.18 87.91L199.758 86.1212C199.202 85.0091 198.165 84.3358 197.154 83.9081L195.596 87.5919ZM195.969 87.0156C195.969 122.401 196.109 143.639 196.392 150.659L200.389 150.497C200.11 143.58 199.969 122.443 199.969 87.0156H195.969ZM196.392 150.655C196.437 151.825 196.784 152.925 197.484 153.874L200.704 151.501C200.528 151.263 200.407 150.956 200.389 150.501L196.392 150.655ZM197.557 153.968C198.296 154.854 199.271 155.469 200.368 155.876L201.757 152.124C201.167 151.906 200.829 151.646 200.63 151.407L197.557 153.968ZM200.368 155.876C201.239 156.198 202 156.453 202.637 156.63L203.707 152.776C203.219 152.64 202.573 152.427 201.757 152.124L200.368 155.876ZM202.738 156.656C203.375 156.797 204.169 156.931 205.102 157.059L205.648 153.097C204.769 152.976 204.094 152.859 203.606 152.751L202.738 156.656ZM203.435 155.563C203.487 155.773 203.521 155.938 203.541 156.062C203.551 156.124 203.556 156.17 203.559 156.204C203.563 156.238 203.562 156.252 203.562 156.25H207.562C207.562 155.722 207.453 155.144 207.315 154.593L203.435 155.563ZM203.562 156.25C203.562 156.194 203.567 156.168 203.564 156.186C203.563 156.201 203.558 156.234 203.548 156.291C203.527 156.405 203.491 156.571 203.435 156.796L207.315 157.766C207.434 157.292 207.562 156.719 207.562 156.25H203.562ZM205.489 155.285C204.393 155.222 203.266 155.159 202.108 155.097L201.892 159.091C203.046 159.153 204.169 159.216 205.261 159.278L205.489 155.285ZM202.111 155.097C200.984 155.034 200.087 154.987 199.423 154.955L199.233 158.951C199.882 158.982 200.766 159.028 201.889 159.091L202.111 155.097ZM199.423 154.955C198.74 154.923 198.099 154.906 197.5 154.906V158.906C198.026 158.906 198.603 158.921 199.233 158.951L199.423 154.955ZM197.5 154.906C196.988 154.906 196.421 154.923 195.801 154.956L196.011 158.95C196.579 158.92 197.074 158.906 197.5 158.906V154.906ZM195.801 154.956C195.2 154.988 194.381 155.035 193.348 155.097L193.59 159.09C194.619 159.028 195.425 158.981 196.011 158.95L195.801 154.956ZM193.348 155.097C192.315 155.16 191.298 155.223 190.297 155.285L190.547 159.277C191.545 159.215 192.56 159.153 193.59 159.09L193.348 155.097ZM191.165 155.424C191.159 155.422 191.174 155.428 191.2 155.447L188.8 158.647C189.076 158.854 189.372 159.015 189.679 159.138L191.165 155.424ZM191.109 155.383C190.983 155.298 190.828 155.201 190.66 155.117L188.871 158.695C188.857 158.688 188.848 158.683 188.844 158.681C188.84 158.679 188.839 158.678 188.842 158.68C188.845 158.682 188.85 158.685 188.859 158.69C188.867 158.696 188.878 158.702 188.891 158.711L191.109 155.383ZM191.554 156.012C191.471 155.844 191.373 155.689 191.289 155.562L187.961 157.781C187.969 157.794 187.976 157.805 187.982 157.813C187.987 157.821 187.99 157.827 187.992 157.83C187.994 157.833 187.993 157.832 187.991 157.828C187.989 157.824 187.984 157.814 187.977 157.801L191.554 156.012ZM191.414 155.777C191.37 155.691 191.318 155.59 191.258 155.491C191.22 155.427 191.097 155.222 190.899 155.023L188.07 157.852C187.971 157.753 187.908 157.667 187.883 157.632C187.853 157.59 187.835 157.56 187.828 157.549C187.815 157.527 187.817 157.528 187.836 157.566L191.414 155.777ZM190.899 155.023C190.979 155.104 191.037 155.176 191.072 155.223C191.109 155.272 191.136 155.314 191.154 155.342C191.188 155.398 191.209 155.438 191.215 155.449C191.226 155.472 191.222 155.467 191.201 155.413L187.487 156.899C187.528 157.002 187.579 157.121 187.637 157.238C187.661 157.286 187.802 157.584 188.07 157.852L190.899 155.023ZM191.317 155.827C191.296 155.701 191.265 155.543 191.22 155.384C191.197 155.305 191.16 155.187 191.101 155.054C191.056 154.953 190.929 154.678 190.664 154.414L187.836 157.242C187.699 157.105 187.61 156.975 187.558 156.892C187.505 156.804 187.468 156.729 187.446 156.678C187.402 156.581 187.381 156.507 187.374 156.483C187.36 156.433 187.361 156.424 187.371 156.485L191.317 155.827ZM191.223 156.157C191.38 155.211 191.438 153.345 191.438 150.766H187.438C187.438 153.436 187.37 154.945 187.277 155.499L191.223 156.157ZM188.036 149.339C183.023 154.26 178.739 156.359 175.141 156.359V160.359C180.292 160.359 185.539 157.396 190.839 152.193L188.036 149.339ZM175.141 156.359C170.908 156.359 167.553 154.8 164.909 151.639L161.841 154.205C165.26 158.294 169.748 160.359 175.141 160.359V156.359ZM164.909 151.639C162.264 148.476 160.828 144.043 160.828 138.109H156.828C156.828 144.676 158.423 150.118 161.841 154.205L164.909 151.639ZM160.828 138.109C160.828 136.109 161.06 134.104 161.526 132.092L157.63 131.189C157.096 133.489 156.828 135.797 156.828 138.109H160.828ZM161.526 132.092C161.981 130.13 162.739 128.177 163.813 126.232L160.312 124.299C159.073 126.541 158.175 128.839 157.63 131.189L161.526 132.092ZM163.813 126.232C164.873 124.314 166.169 122.636 167.701 121.188L164.955 118.28C163.113 120.02 161.565 122.03 160.312 124.299L163.813 126.232ZM167.701 121.188C169.161 119.81 171.059 118.657 173.45 117.764L172.05 114.017C169.254 115.062 166.87 116.471 164.955 118.28L167.701 121.188ZM173.469 117.757C175.805 116.856 178.432 116.391 181.375 116.391V112.391C178.006 112.391 174.883 112.925 172.031 114.025L173.469 117.757ZM181.375 116.391C183.449 116.391 185.986 116.836 189.021 117.797L190.229 113.984C186.951 112.946 183.989 112.391 181.375 112.391V116.391ZM191.625 115.87C191.562 109.942 191.531 102.559 191.531 93.7188H187.531C187.531 102.566 187.563 109.965 187.625 115.912L191.625 115.87ZM190.533 91.9879C188.322 90.7078 184.918 90.0533 180.65 89.8004L180.413 93.7934C184.582 94.0404 187.178 94.6672 188.529 95.4496L190.533 91.9879ZM182.472 91.3118C182.418 91.0966 182.383 90.9322 182.363 90.8118C182.342 90.6832 182.344 90.6457 182.344 90.6719H178.344C178.344 91.1801 178.459 91.7537 178.591 92.2819L182.472 91.3118ZM182.344 90.6719C182.344 90.7279 182.338 90.7115 182.361 90.581C182.381 90.4641 182.416 90.2992 182.472 90.0788L178.591 89.1087C178.465 89.6117 178.344 90.1831 178.344 90.6719H182.344ZM179.641 154.219C183.504 154.219 187.274 152.157 190.919 148.643L188.143 145.763C184.851 148.937 182.028 150.219 179.641 150.219V154.219ZM191.531 147.244C191.594 144.158 191.625 138.341 191.625 129.812H187.625C187.625 138.346 187.594 144.123 187.532 147.162L191.531 147.244ZM191.625 129.812V123.016H187.625V129.812H191.625ZM191.355 122.012C188.827 117.652 184.857 115.438 179.734 115.438V119.438C183.487 119.438 186.11 120.941 187.895 124.019L191.355 122.012ZM179.734 115.438C178.594 115.438 177.463 115.609 176.347 115.944L177.497 119.775C178.256 119.547 179 119.438 179.734 119.438V115.438ZM176.347 115.944C175.092 116.32 173.868 117.036 172.678 117.981L175.166 121.113C176.101 120.37 176.877 119.961 177.497 119.775L176.347 115.944ZM172.678 117.981C171.412 118.986 170.326 120.246 169.409 121.729L172.81 123.834C173.517 122.691 174.307 121.795 175.166 121.113L172.678 117.981ZM169.391 121.758C168.459 123.324 167.744 125.378 167.19 127.824L171.091 128.708C171.599 126.465 172.197 124.864 172.828 123.804L169.391 121.758ZM167.191 127.818C166.619 130.311 166.344 133.139 166.344 136.281H170.344C170.344 133.361 170.6 130.845 171.09 128.713L167.191 127.818ZM166.344 136.281C166.344 141.174 167.352 145.387 169.515 148.791L172.891 146.646C171.242 144.05 170.344 140.639 170.344 136.281H166.344ZM169.523 148.804C171.843 152.396 175.301 154.219 179.641 154.219V150.219C176.605 150.219 174.438 149.041 172.883 146.634L169.523 148.804ZM249.25 130.156H223.703V134.156H249.25V130.156ZM221.708 132.023C221.58 133.93 221.516 135.632 221.516 137.125H225.516C225.516 135.743 225.576 134.133 225.699 132.289L221.708 132.023ZM221.516 137.165C221.618 142.205 223.103 146.448 226.132 149.693L229.056 146.963C226.835 144.584 225.601 141.357 225.515 137.085L221.516 137.165ZM226.139 149.701C229.201 152.945 233.276 154.5 238.141 154.5V150.5C234.193 150.5 231.237 149.274 229.048 146.955L226.139 149.701ZM238.141 154.5C239.468 154.5 240.737 154.36 241.94 154.069L240.998 150.181C240.138 150.39 239.188 150.5 238.141 150.5V154.5ZM241.995 154.055C243.11 153.75 244.101 153.392 244.928 152.959L243.072 149.416C242.586 149.67 241.89 149.937 240.943 150.195L241.995 154.055ZM244.894 152.976C245.784 152.532 246.637 151.914 247.458 151.164L244.761 148.211C244.144 148.774 243.591 149.156 243.106 149.399L244.894 152.976ZM247.458 151.164C248.192 150.495 248.79 149.904 249.193 149.421L246.12 146.86C245.898 147.127 245.465 147.568 244.761 148.211L247.458 151.164ZM249.183 149.433C249.577 148.967 250.066 148.324 250.639 147.528L247.393 145.191C246.84 145.958 246.423 146.502 246.129 146.849L249.183 149.433ZM250.66 147.498C251.238 146.663 251.552 146.239 251.659 146.114L248.622 143.511C248.354 143.823 247.918 144.431 247.371 145.221L250.66 147.498ZM249.733 146.77C250.096 146.846 250.31 146.987 250.469 147.167L253.468 144.521C252.69 143.638 251.685 143.091 250.549 142.855L249.733 146.77ZM250.095 145.145C248.661 148.988 246.49 151.753 243.627 153.58L245.779 156.952C249.479 154.591 252.152 151.074 253.843 146.543L250.095 145.145ZM243.639 153.572C240.674 155.436 237.479 156.359 234.016 156.359V160.359C238.239 160.359 242.17 159.22 245.767 156.959L243.639 153.572ZM234.016 156.359C232.287 156.359 230.606 156.133 228.969 155.681L227.906 159.537C229.894 160.086 231.932 160.359 234.016 160.359V156.359ZM228.946 155.675C227.388 155.265 225.848 154.576 224.322 153.587L222.147 156.944C223.996 158.143 225.924 159.016 227.929 159.544L228.946 155.675ZM224.322 153.587C222.821 152.615 221.516 151.421 220.402 150L217.254 152.469C218.64 154.235 220.272 155.729 222.147 156.944L224.322 153.587ZM220.413 150.015C219.336 148.615 218.433 146.823 217.738 144.592L213.919 145.783C214.723 148.365 215.82 150.604 217.243 152.454L220.413 150.015ZM217.74 144.599C217.056 142.379 216.703 139.893 216.703 137.125H212.703C212.703 140.232 213.1 143.121 213.917 145.776L217.74 144.599ZM216.703 137.125C216.703 130.974 218.568 126.048 222.206 122.184L219.294 119.441C214.87 124.14 212.703 130.089 212.703 137.125H216.703ZM222.206 122.184C225.86 118.303 230.286 116.391 235.609 116.391V112.391C229.182 112.391 223.703 114.759 219.294 119.441L222.206 122.184ZM235.609 116.391C238.016 116.391 240.007 116.739 241.627 117.377L243.092 113.654C240.899 112.792 238.39 112.391 235.609 112.391V116.391ZM241.664 117.391C243.362 118.021 244.545 118.834 245.335 119.764L248.383 117.173C247.048 115.603 245.232 114.448 243.055 113.64L241.664 117.391ZM245.354 119.786C246.282 120.846 246.941 121.991 247.353 123.226L251.147 121.961C250.559 120.197 249.624 118.591 248.365 117.152L245.354 119.786ZM247.369 123.274C247.815 124.508 248.047 125.854 248.047 127.328H252.047C252.047 125.427 251.747 123.617 251.131 121.913L247.369 123.274ZM248.047 127.328C248.047 128.661 247.821 130.064 247.346 131.545L251.154 132.767C251.742 130.936 252.047 129.12 252.047 127.328H248.047ZM234.484 115.438C231.675 115.438 229.15 116.698 226.941 118.871L229.746 121.723C231.412 120.084 232.981 119.438 234.484 119.438V115.438ZM226.93 118.883C224.653 121.159 223.154 124.46 222.265 128.543L226.173 129.394C226.971 125.728 228.222 123.247 229.758 121.711L226.93 118.883ZM224.219 130.969H241.094V126.969H224.219V130.969ZM243.028 129.478C243.368 128.185 243.562 126.975 243.562 125.875H239.562C239.562 126.525 239.444 127.377 239.16 128.46L243.028 129.478ZM243.562 125.875C243.562 123.128 242.926 120.682 241.509 118.675L238.241 120.981C239.074 122.162 239.562 123.747 239.562 125.875H243.562ZM241.509 118.675C239.91 116.41 237.41 115.438 234.484 115.438V119.438C236.496 119.438 237.59 120.059 238.241 120.981L241.509 118.675ZM256.565 117.42C260.719 117.609 264.749 117.703 268.656 117.703V113.703C264.813 113.703 260.844 113.61 256.747 113.424L256.565 117.42ZM268.656 117.703C271.603 117.703 275.104 117.608 279.155 117.42L278.97 113.424C274.958 113.611 271.522 113.703 268.656 113.703V117.703ZM277.122 115.907C277.175 116.117 277.208 116.281 277.228 116.406C277.238 116.467 277.244 116.514 277.247 116.548C277.25 116.582 277.25 116.596 277.25 116.594H281.25C281.25 116.066 281.14 115.487 281.003 114.937L277.122 115.907ZM277.25 116.594C277.25 116.537 277.254 116.511 277.252 116.53C277.25 116.545 277.246 116.578 277.235 116.634C277.215 116.749 277.179 116.914 277.122 117.14L281.003 118.11C281.121 117.636 281.25 117.063 281.25 116.594H277.25ZM278.903 115.631C278.084 115.697 277.361 115.781 276.746 115.89L277.441 119.829C277.889 119.75 278.478 119.678 279.222 119.619L278.903 115.631ZM276.846 115.875C276.201 115.955 275.534 116.111 274.851 116.327L276.055 120.142C276.559 119.982 276.986 119.888 277.342 119.844L276.846 115.875ZM274.944 116.3C274.095 116.524 273.258 116.931 272.614 117.639L275.574 120.33C275.555 120.35 275.624 120.257 275.962 120.169L274.944 116.3ZM272.546 117.718C271.935 118.464 271.672 119.35 271.672 120.25H275.672C275.672 120.219 275.674 120.2 275.675 120.191C275.677 120.183 275.677 120.184 275.675 120.191C275.672 120.199 275.668 120.21 275.661 120.222C275.654 120.234 275.647 120.244 275.642 120.251L272.546 117.718ZM271.672 120.25C271.672 120.681 271.72 121.107 271.813 121.528L275.718 120.66C275.686 120.518 275.672 120.382 275.672 120.25H271.672ZM271.893 121.796C271.996 122.071 272.101 122.335 272.209 122.585L275.885 121.009C275.805 120.822 275.723 120.616 275.638 120.392L271.893 121.796ZM272.383 122.906C272.423 122.967 272.42 122.968 272.399 122.926C272.388 122.904 272.357 122.84 272.325 122.746C272.309 122.697 272.288 122.626 272.27 122.538C272.253 122.452 272.234 122.326 272.234 122.172H276.234C276.234 121.631 276.015 121.215 275.976 121.137C275.893 120.969 275.795 120.814 275.711 120.687L272.383 122.906ZM272.608 123.336L279.827 133.415L283.079 131.085L275.86 121.007L272.608 123.336ZM283.05 133.454L290.644 123.375L287.45 120.968L279.856 131.046L283.05 133.454ZM290.678 123.329C291.05 122.806 291.368 122.308 291.601 121.852C291.799 121.465 292.078 120.845 292.078 120.156H288.078C288.078 120.053 288.09 119.977 288.098 119.935C288.102 119.913 288.106 119.896 288.109 119.886C288.111 119.876 288.113 119.87 288.113 119.869C288.114 119.869 288.109 119.882 288.097 119.911C288.084 119.94 288.066 119.979 288.04 120.03C287.929 120.247 287.732 120.569 287.416 121.014L290.678 123.329ZM292.078 120.156C292.078 119.407 291.885 118.668 291.453 118.007C291.03 117.359 290.446 116.893 289.819 116.561C288.617 115.924 287.055 115.676 285.356 115.626L285.238 119.624C286.727 119.668 287.555 119.888 287.947 120.096C288.117 120.186 288.13 120.234 288.105 120.196C288.072 120.145 288.078 120.108 288.078 120.156H292.078ZM287.237 117.14C287.181 116.914 287.145 116.749 287.124 116.634C287.114 116.578 287.109 116.545 287.107 116.53C287.105 116.511 287.109 116.537 287.109 116.594H283.109C283.109 117.063 283.238 117.636 283.357 118.11L287.237 117.14ZM287.109 116.594C287.109 116.596 287.109 116.582 287.112 116.548C287.116 116.514 287.121 116.467 287.131 116.406C287.151 116.281 287.185 116.117 287.237 115.907L283.357 114.937C283.219 115.487 283.109 116.066 283.109 116.594H287.109ZM285.194 117.419C288.83 117.606 291.156 117.703 292.094 117.703V113.703C291.282 113.703 289.076 113.613 285.399 113.424L285.194 117.419ZM292.094 117.703C294.761 117.703 298.123 117.608 302.171 117.42L301.985 113.424C297.97 113.611 294.676 113.703 292.094 113.703V117.703ZM300.181 116.054C300.22 116.172 300.242 116.261 300.254 116.323C300.266 116.386 300.266 116.412 300.266 116.406H304.266C304.266 115.842 304.143 115.292 303.975 114.789L300.181 116.054ZM300.266 116.406C300.266 116.355 300.269 116.338 300.265 116.379C300.261 116.412 300.254 116.467 300.242 116.547C300.217 116.71 300.176 116.936 300.117 117.233L304.039 118.017C304.154 117.443 304.266 116.831 304.266 116.406H300.266ZM301.987 115.627C300.36 115.701 298.817 116.073 297.378 116.755L299.091 120.37C300.027 119.927 301.046 119.674 302.169 119.623L301.987 115.627ZM297.418 116.737C296.158 117.3 295.074 117.906 294.274 118.58L296.851 121.639C297.238 121.313 297.936 120.887 299.051 120.388L297.418 116.737ZM294.234 118.615C293.617 119.163 292.874 119.891 292.013 120.784L294.893 123.56C295.72 122.703 296.383 122.056 296.891 121.604L294.234 118.615ZM291.878 120.939L281.894 133.689L285.043 136.155L295.028 123.405L291.878 120.939ZM281.847 136.092L293.144 151.748L296.387 149.408L285.091 133.752L281.847 136.092ZM293.225 151.853C294.026 152.822 294.822 153.658 295.615 154.342L298.229 151.314C297.646 150.811 297.005 150.147 296.306 149.303L293.225 151.853ZM295.648 154.37C296.509 155.082 297.436 155.647 298.429 156.044L299.915 152.331C299.345 152.103 298.772 151.762 298.196 151.286L295.648 154.37ZM298.494 156.069C299.292 156.357 299.977 156.577 300.503 156.699L301.403 152.801C301.117 152.735 300.614 152.581 299.849 152.306L298.494 156.069ZM300.534 156.706C301.047 156.816 301.78 156.933 302.695 157.059L303.242 153.097C302.345 152.973 301.734 152.872 301.372 152.794L300.534 156.706ZM301.18 155.973C301.156 155.924 301.144 155.889 301.139 155.874C301.135 155.859 301.136 155.859 301.139 155.878C301.146 155.918 301.156 156.006 301.156 156.156H305.156C305.156 155.561 305.085 154.839 304.758 154.184L301.18 155.973ZM301.156 156.156C301.156 156.412 301.119 156.521 301.112 156.538L304.826 158.024C305.069 157.416 305.156 156.776 305.156 156.156H301.156ZM303.06 155.283C298.906 155.095 294.876 155 290.969 155V159C294.812 159 298.781 159.093 302.878 159.279L303.06 155.283ZM290.969 155C288.022 155 284.521 155.095 280.47 155.283L280.655 159.279C284.667 159.093 288.103 159 290.969 159V155ZM282.503 156.796C282.449 156.581 282.415 156.417 282.395 156.296C282.373 156.168 282.375 156.13 282.375 156.156H278.375C278.375 156.665 278.49 157.238 278.622 157.766L282.503 156.796ZM282.375 156.156C282.375 156.212 282.37 156.196 282.392 156.065C282.413 155.948 282.448 155.784 282.503 155.563L278.622 154.593C278.496 155.096 278.375 155.667 278.375 156.156H282.375ZM280.733 157.071C281.843 156.976 282.751 156.878 283.437 156.775L282.844 152.819C282.28 152.904 281.469 152.993 280.392 153.085L280.733 157.071ZM283.423 156.777C284.375 156.641 285.266 156.301 286.084 155.785L283.948 152.403C283.578 152.636 283.218 152.765 282.858 152.817L283.423 156.777ZM286.106 155.771C287.208 155.054 287.953 153.935 287.953 152.5H283.953C283.953 152.504 283.953 152.488 283.96 152.46C283.968 152.43 283.98 152.401 283.995 152.377C284.009 152.353 284.018 152.345 284.012 152.351C284.004 152.359 283.979 152.382 283.926 152.417L286.106 155.771ZM287.953 152.5C287.953 151.442 287.646 150.45 287.106 149.549L283.676 151.607C283.885 151.957 283.953 152.245 283.953 152.5H287.953ZM287.012 149.408L279.231 138.626L275.988 140.967L283.769 151.749L287.012 149.408ZM276.041 138.556L267.51 149.337L270.646 151.819L279.178 141.038L276.041 138.556ZM267.533 149.309C267.126 149.804 266.769 150.302 266.506 150.795C266.258 151.259 266 151.886 266 152.594H270C270 152.728 269.975 152.804 269.975 152.805C269.974 152.808 269.987 152.768 270.033 152.682C270.129 152.502 270.311 152.228 270.624 151.848L267.533 149.309ZM266 152.594C266 153.343 266.197 154.081 266.635 154.737C267.062 155.379 267.649 155.837 268.273 156.161C269.47 156.784 271.026 157.027 272.722 157.077L272.84 153.079C271.349 153.035 270.514 152.818 270.117 152.612C269.945 152.522 269.934 152.475 269.963 152.519C270.002 152.577 270 152.626 270 152.594H266ZM270.915 155.796C271.015 156.057 271.016 156.165 271.016 156.156H275.016C275.016 155.522 274.86 154.912 274.648 154.36L270.915 155.796ZM271.016 156.156C271.016 156.199 271.005 156.328 270.915 156.563L274.648 157.999C274.87 157.422 275.016 156.801 275.016 156.156H271.016ZM272.886 155.284C269.34 155.097 267.017 155 265.984 155V159C266.889 159 269.097 159.09 272.676 159.278L272.886 155.284ZM265.984 155C263.317 155 259.955 155.095 255.907 155.283L256.093 159.279C260.108 159.092 263.402 159 265.984 159V155ZM257.897 156.649C257.855 156.522 257.832 156.432 257.821 156.373C257.808 156.313 257.812 156.307 257.812 156.344H253.812C253.812 156.896 253.944 157.439 254.103 157.914L257.897 156.649ZM257.812 156.344C257.812 156.386 257.81 156.343 257.838 156.156C257.862 155.99 257.902 155.764 257.961 155.47L254.039 154.686C253.92 155.282 253.812 155.895 253.812 156.344H257.812ZM256.091 157.076C257.702 157.003 259.231 156.653 260.66 156.013L259.027 152.362C258.082 152.785 257.048 153.028 255.909 153.08L256.091 157.076ZM260.66 156.013C261.92 155.45 263.004 154.844 263.804 154.17L261.227 151.111C260.84 151.437 260.143 151.863 259.027 152.362L260.66 156.013ZM263.811 154.165C264.515 153.566 265.277 152.818 266.093 151.937L263.157 149.219C262.411 150.026 261.766 150.653 261.22 151.117L263.811 154.165ZM266.179 151.837L277.148 138.29L274.039 135.773L263.071 149.32L266.179 151.837ZM277.215 135.86L266.481 121.001L263.238 123.343L273.973 138.202L277.215 135.86ZM266.4 120.897C265.59 119.917 264.767 119.072 263.93 118.38L261.382 121.464C261.983 121.96 262.629 122.614 263.319 123.447L266.4 120.897ZM263.964 118.408C263.095 117.658 262.126 117.088 261.06 116.719L259.752 120.499C260.312 120.693 260.842 120.998 261.349 121.436L263.964 118.408ZM261.149 116.752C260.348 116.432 259.637 116.181 259.075 116.051L258.175 119.949C258.425 120.006 258.902 120.162 259.663 120.466L261.149 116.752ZM259.11 116.06C258.649 115.944 257.921 115.808 256.985 115.652L256.327 119.598C257.266 119.754 257.851 119.868 258.14 119.94L259.11 116.06ZM258.445 116.731C258.485 116.811 258.489 116.852 258.483 116.822C258.478 116.793 258.469 116.721 258.469 116.594H254.469C254.469 117.184 254.547 117.878 254.867 118.519L258.445 116.731ZM258.469 116.594C258.469 116.446 258.479 116.339 258.491 116.265C258.502 116.191 258.514 116.162 258.513 116.165L254.799 114.679C254.551 115.301 254.469 115.963 254.469 116.594H258.469Z" fill="#F6F6F6" mask="url(#path-1-outside-1_0_1)"/>
</svg>
